<?xml version="1.0" encoding="UTF-8" standalone="no"?>
<!DOCTYPE svg PUBLIC "-//W3C//DTD SVG 1.1//EN"
 "http://www.w3.org/Graphics/SVG/1.1/DTD/svg11.dtd">
<!-- Generated by graphviz version 2.50.0 (20211204.2007)
 -->
<!-- Title: A sequencia de um dos lados do hashtag tem de ser igual do outro lado Pages: 1 -->
<svg width="439pt" height="305pt"
 viewBox="0.00 0.00 439.00 304.82" xmlns="http://www.w3.org/2000/svg" xmlns:xlink="http://www.w3.org/1999/xlink">
<g id="graph0" class="graph" transform="scale(1 1) rotate(0) translate(4 300.82)">
<title>A sequencia de um dos lados do hashtag tem de ser igual do outro lado</title>
<polygon fill="white" stroke="transparent" points="-4,4 -4,-300.82 435,-300.82 435,4 -4,4"/>
<!-- Start -->
<g id="node1" class="node">
<title>Start</title>
</g>
<!-- A -->
<g id="node5" class="node">
<title>A</title>
<ellipse fill="none" stroke="black" cx="109" cy="-53.82" rx="18" ry="18"/>
<text text-anchor="middle" x="109" y="-50.12" font-family="Times New Roman,serif" font-size="14.00">A</text>
</g>
<!-- Start&#45;&gt;A -->
<g id="edge1" class="edge">
<title>Start&#45;&gt;A</title>
<path fill="none" stroke="black" d="M54.19,-53.82C62.65,-53.82 72.05,-53.82 80.6,-53.82"/>
<polygon fill="black" stroke="black" points="90.83,-53.82 80.83,-58.32 85.83,-53.82 80.83,-53.82 80.83,-53.82 80.83,-53.82 85.83,-53.82 80.83,-49.32 90.83,-53.82 90.83,-53.82"/>
</g>
<!-- B -->
<g id="node2" class="node">
<title>B</title>
<ellipse fill="none" stroke="black" cx="212" cy="-212.82" rx="18" ry="18"/>
<text text-anchor="middle" x="212" y="-209.12" font-family="Times New Roman,serif" font-size="14.00">B</text>
</g>
<!-- B&#45;&gt;B -->
<g id="edge5" class="edge">
<title>B&#45;&gt;B</title>
<path fill="none" stroke="black" d="M207.36,-230.23C206.49,-239.91 208.04,-248.82 212,-248.82 214.48,-248.82 216.01,-245.34 216.6,-240.36"/>
<polygon fill="black" stroke="black" points="216.64,-230.23 221.1,-240.25 216.62,-235.23 216.6,-240.23 216.6,-240.23 216.6,-240.23 216.62,-235.23 212.1,-240.21 216.64,-230.23 216.64,-230.23"/>
<text text-anchor="middle" x="212" y="-252.62" font-family="Times New Roman,serif" font-size="14.00">00R</text>
</g>
<!-- B&#45;&gt;B -->
<g id="edge6" class="edge">
<title>B&#45;&gt;B</title>
<path fill="none" stroke="black" d="M204.54,-229.4C199.86,-246.99 202.35,-266.82 212,-266.82 219.84,-266.82 222.95,-253.73 221.34,-239.39"/>
<polygon fill="black" stroke="black" points="219.46,-229.4 225.73,-238.4 220.38,-234.32 221.31,-239.23 221.31,-239.23 221.31,-239.23 220.38,-234.32 216.88,-240.06 219.46,-229.4 219.46,-229.4"/>
<text text-anchor="middle" x="212" y="-270.62" font-family="Times New Roman,serif" font-size="14.00">11R</text>
</g>
<!-- C -->
<g id="node7" class="node">
<title>C</title>
<ellipse fill="none" stroke="black" cx="316" cy="-195.82" rx="18" ry="18"/>
<text text-anchor="middle" x="316" y="-192.12" font-family="Times New Roman,serif" font-size="14.00">C</text>
</g>
<!-- B&#45;&gt;C -->
<g id="edge7" class="edge">
<title>B&#45;&gt;C</title>
<path fill="none" stroke="black" d="M229.84,-210.01C245.72,-207.37 269.76,-203.36 288.25,-200.28"/>
<polygon fill="black" stroke="black" points="298.13,-198.63 289.01,-204.71 293.2,-199.45 288.27,-200.27 288.27,-200.27 288.27,-200.27 293.2,-199.45 287.53,-195.84 298.13,-198.63 298.13,-198.63"/>
<text text-anchor="middle" x="266" y="-209.62" font-family="Times New Roman,serif" font-size="14.00">##R</text>
</g>
<!-- E -->
<g id="node3" class="node">
<title>E</title>
<ellipse fill="none" stroke="black" cx="212" cy="-92.82" rx="18" ry="18"/>
<text text-anchor="middle" x="212" y="-89.12" font-family="Times New Roman,serif" font-size="14.00">E</text>
</g>
<!-- E&#45;&gt;E -->
<g id="edge15" class="edge">
<title>E&#45;&gt;E</title>
<path fill="none" stroke="black" d="M207.36,-110.23C206.49,-119.91 208.04,-128.82 212,-128.82 214.48,-128.82 216.01,-125.34 216.6,-120.36"/>
<polygon fill="black" stroke="black" points="216.64,-110.23 221.1,-120.25 216.62,-115.23 216.6,-120.23 216.6,-120.23 216.6,-120.23 216.62,-115.23 212.1,-120.21 216.64,-110.23 216.64,-110.23"/>
<text text-anchor="middle" x="212" y="-132.62" font-family="Times New Roman,serif" font-size="14.00">00R</text>
</g>
<!-- E&#45;&gt;E -->
<g id="edge16" class="edge">
<title>E&#45;&gt;E</title>
<path fill="none" stroke="black" d="M204.54,-109.4C199.86,-126.99 202.35,-146.82 212,-146.82 219.84,-146.82 222.95,-133.73 221.34,-119.39"/>
<polygon fill="black" stroke="black" points="219.46,-109.4 225.73,-118.4 220.38,-114.32 221.31,-119.23 221.31,-119.23 221.31,-119.23 220.38,-114.32 216.88,-120.06 219.46,-109.4 219.46,-109.4"/>
<text text-anchor="middle" x="212" y="-150.62" font-family="Times New Roman,serif" font-size="14.00">11R</text>
</g>
<!-- F -->
<g id="node4" class="node">
<title>F</title>
<ellipse fill="none" stroke="black" cx="316" cy="-92.82" rx="18" ry="18"/>
<text text-anchor="middle" x="316" y="-89.12" font-family="Times New Roman,serif" font-size="14.00">F</text>
</g>
<!-- E&#45;&gt;F -->
<g id="edge17" class="edge">
<title>E&#45;&gt;F</title>
<path fill="none" stroke="black" d="M230.3,-92.82C246.08,-92.82 269.64,-92.82 287.91,-92.82"/>
<polygon fill="black" stroke="black" points="297.95,-92.82 287.95,-97.32 292.95,-92.82 287.95,-92.82 287.95,-92.82 287.95,-92.82 292.95,-92.82 287.95,-88.32 297.95,-92.82 297.95,-92.82"/>
<text text-anchor="middle" x="266" y="-96.62" font-family="Times New Roman,serif" font-size="14.00">##R</text>
</g>
<!-- F&#45;&gt;F -->
<g id="edge18" class="edge">
<title>F&#45;&gt;F</title>
<path fill="none" stroke="black" d="M307.64,-109.11C305.62,-119.21 308.41,-128.82 316,-128.82 320.86,-128.82 323.76,-124.87 324.68,-119.38"/>
<polygon fill="black" stroke="black" points="324.36,-109.11 329.17,-118.97 324.52,-114.11 324.67,-119.1 324.67,-119.1 324.67,-119.1 324.52,-114.11 320.17,-119.24 324.36,-109.11 324.36,-109.11"/>
<text text-anchor="middle" x="316" y="-132.62" font-family="Times New Roman,serif" font-size="14.00">XXR</text>
</g>
<!-- D -->
<g id="node6" class="node">
<title>D</title>
<ellipse fill="none" stroke="black" cx="413" cy="-92.82" rx="18" ry="18"/>
<text text-anchor="middle" x="413" y="-89.12" font-family="Times New Roman,serif" font-size="14.00">D</text>
</g>
<!-- F&#45;&gt;D -->
<g id="edge19" class="edge">
<title>F&#45;&gt;D</title>
<path fill="none" stroke="black" d="M334.42,-92.82C348.35,-92.82 368.14,-92.82 384.24,-92.82"/>
<polygon fill="black" stroke="black" points="394.69,-92.82 384.69,-97.32 389.69,-92.82 384.69,-92.82 384.69,-92.82 384.69,-92.82 389.69,-92.82 384.69,-88.32 394.69,-92.82 394.69,-92.82"/>
<text text-anchor="middle" x="364.5" y="-96.62" font-family="Times New Roman,serif" font-size="14.00">0XL</text>
</g>
<!-- A&#45;&gt;B -->
<g id="edge4" class="edge">
<title>A&#45;&gt;B</title>
<path fill="none" stroke="black" d="M118.56,-69.22C132.63,-94.23 161.89,-144.99 190,-185.82 191.16,-187.51 192.39,-189.23 193.65,-190.95"/>
<polygon fill="black" stroke="black" points="200,-199.31 190.37,-194.07 196.98,-195.33 193.96,-191.35 193.96,-191.35 193.96,-191.35 196.98,-195.33 197.54,-188.63 200,-199.31 200,-199.31"/>
<text text-anchor="middle" x="158.5" y="-160.62" font-family="Times New Roman,serif" font-size="14.00">1XR</text>
</g>
<!-- A&#45;&gt;E -->
<g id="edge14" class="edge">
<title>A&#45;&gt;E</title>
<path fill="none" stroke="black" d="M126.23,-60.08C142.2,-66.25 166.85,-75.77 185.45,-82.95"/>
<polygon fill="black" stroke="black" points="194.81,-86.57 183.86,-87.16 190.15,-84.77 185.48,-82.97 185.48,-82.97 185.48,-82.97 190.15,-84.77 187.11,-78.77 194.81,-86.57 194.81,-86.57"/>
<text text-anchor="middle" x="158.5" y="-79.62" font-family="Times New Roman,serif" font-size="14.00">0XR</text>
</g>
<!-- A&#45;&gt;A -->
<g id="edge2" class="edge">
<title>A&#45;&gt;A</title>
<path fill="none" stroke="black" d="M105.76,-71.6C105.21,-81.13 106.29,-89.82 109,-89.82 110.65,-89.82 111.69,-86.59 112.13,-81.92"/>
<polygon fill="black" stroke="black" points="112.24,-71.6 116.64,-81.64 112.19,-76.6 112.14,-81.6 112.14,-81.6 112.14,-81.6 112.19,-76.6 107.64,-81.56 112.24,-71.6 112.24,-71.6"/>
<text text-anchor="middle" x="109" y="-93.62" font-family="Times New Roman,serif" font-size="14.00">XXR</text>
</g>
<!-- A&#45;&gt;A -->
<g id="edge3" class="edge">
<title>A&#45;&gt;A</title>
<path fill="none" stroke="black" d="M103.68,-71.24C100.65,-88.61 102.43,-107.82 109,-107.82 114.29,-107.82 116.47,-95.38 115.54,-81.47"/>
<polygon fill="black" stroke="black" points="114.32,-71.24 119.97,-80.63 114.91,-76.2 115.51,-81.17 115.51,-81.17 115.51,-81.17 114.91,-76.2 111.04,-81.7 114.32,-71.24 114.32,-71.24"/>
<text text-anchor="middle" x="109" y="-111.62" font-family="Times New Roman,serif" font-size="14.00">##R</text>
</g>
<!-- G -->
<g id="node8" class="node">
<title>G</title>
<ellipse fill="none" stroke="black" cx="212" cy="-34.82" rx="18" ry="18"/>
<ellipse fill="none" stroke="black" cx="212" cy="-34.82" rx="22" ry="22"/>
<text text-anchor="middle" x="212" y="-31.12" font-family="Times New Roman,serif" font-size="14.00">G</text>
</g>
<!-- A&#45;&gt;G -->
<g id="edge21" class="edge">
<title>A&#45;&gt;G</title>
<path fill="none" stroke="black" d="M126.69,-49.79C132.47,-48.45 139.01,-47 145,-45.82 156.4,-43.57 168.97,-41.4 180.05,-39.59"/>
<polygon fill="black" stroke="black" points="190.13,-37.97 180.97,-44 185.2,-38.76 180.26,-39.55 180.26,-39.55 180.26,-39.55 185.2,-38.76 179.55,-35.11 190.13,-37.97 190.13,-37.97"/>
<text text-anchor="middle" x="158.5" y="-49.62" font-family="Times New Roman,serif" font-size="14.00">ΔΔS</text>
</g>
<!-- D&#45;&gt;A -->
<g id="edge20" class="edge">
<title>D&#45;&gt;A</title>
<path fill="none" stroke="black" d="M397.67,-82.7C368.53,-62.83 299.57,-19.3 234,-3.82 214.97,0.67 208.8,1.57 190,-3.82 168.15,-10.08 146.48,-24.25 131.22,-35.91"/>
<polygon fill="black" stroke="black" points="123.02,-42.4 128.06,-32.67 126.94,-39.3 130.86,-36.19 130.86,-36.19 130.86,-36.19 126.94,-39.3 133.65,-39.72 123.02,-42.4 123.02,-42.4"/>
<text text-anchor="middle" x="266" y="-21.62" font-family="Times New Roman,serif" font-size="14.00">ΔΔR</text>
</g>
<!-- D&#45;&gt;D -->
<g id="edge10" class="edge">
<title>D&#45;&gt;D</title>
<path fill="none" stroke="black" d="M410.83,-110.97C410.5,-120.36 411.22,-128.82 413,-128.82 414.09,-128.82 414.78,-125.68 415.08,-121.1"/>
<polygon fill="black" stroke="black" points="415.17,-110.97 419.58,-121.01 415.13,-115.97 415.08,-120.97 415.08,-120.97 415.08,-120.97 415.13,-115.97 410.58,-120.93 415.17,-110.97 415.17,-110.97"/>
<text text-anchor="middle" x="413" y="-132.62" font-family="Times New Roman,serif" font-size="14.00">00L</text>
</g>
<!-- D&#45;&gt;D -->
<g id="edge11" class="edge">
<title>D&#45;&gt;D</title>
<path fill="none" stroke="black" d="M409.42,-110.52C407.45,-127.81 408.64,-146.82 413,-146.82 416.51,-146.82 417.96,-134.51 417.37,-120.69"/>
<polygon fill="black" stroke="black" points="416.58,-110.52 421.84,-120.14 416.97,-115.5 417.35,-120.49 417.35,-120.49 417.35,-120.49 416.97,-115.5 412.87,-120.84 416.58,-110.52 416.58,-110.52"/>
<text text-anchor="middle" x="413" y="-150.62" font-family="Times New Roman,serif" font-size="14.00">11L</text>
</g>
<!-- D&#45;&gt;D -->
<g id="edge12" class="edge">
<title>D&#45;&gt;D</title>
<path fill="none" stroke="black" d="M408.51,-110.53C404.4,-134.93 405.9,-164.82 413,-164.82 419.16,-164.82 421.1,-142.34 418.83,-120.46"/>
<polygon fill="black" stroke="black" points="417.49,-110.53 423.29,-119.84 418.16,-115.49 418.83,-120.44 418.83,-120.44 418.83,-120.44 418.16,-115.49 414.37,-121.05 417.49,-110.53 417.49,-110.53"/>
<text text-anchor="middle" x="413" y="-168.62" font-family="Times New Roman,serif" font-size="14.00">XXL</text>
</g>
<!-- D&#45;&gt;D -->
<g id="edge13" class="edge">
<title>D&#45;&gt;D</title>
<path fill="none" stroke="black" d="M407.88,-110.49C401.35,-141.67 403.06,-182.82 413,-182.82 421.89,-182.82 424.19,-149.89 419.91,-120.63"/>
<polygon fill="black" stroke="black" points="418.12,-110.49 424.29,-119.56 418.99,-115.41 419.86,-120.34 419.86,-120.34 419.86,-120.34 418.99,-115.41 415.43,-121.12 418.12,-110.49 418.12,-110.49"/>
<text text-anchor="middle" x="413" y="-186.62" font-family="Times New Roman,serif" font-size="14.00">##L</text>
</g>
<!-- C&#45;&gt;D -->
<g id="edge9" class="edge">
<title>C&#45;&gt;D</title>
<path fill="none" stroke="black" d="M329.03,-182.77C345.16,-165.28 373.98,-134.04 393.04,-113.37"/>
<polygon fill="black" stroke="black" points="400.07,-105.76 396.59,-116.16 396.68,-109.43 393.29,-113.11 393.29,-113.11 393.29,-113.11 396.68,-109.43 389.98,-110.06 400.07,-105.76 400.07,-105.76"/>
<text text-anchor="middle" x="364.5" y="-159.62" font-family="Times New Roman,serif" font-size="14.00">1XL</text>
</g>
<!-- C&#45;&gt;C -->
<g id="edge8" class="edge">
<title>C&#45;&gt;C</title>
<path fill="none" stroke="black" d="M307.64,-212.11C305.62,-222.21 308.41,-231.82 316,-231.82 320.86,-231.82 323.76,-227.87 324.68,-222.38"/>
<polygon fill="black" stroke="black" points="324.36,-212.11 329.17,-221.97 324.52,-217.11 324.67,-222.1 324.67,-222.1 324.67,-222.1 324.52,-217.11 320.17,-222.24 324.36,-212.11 324.36,-212.11"/>
<text text-anchor="middle" x="316" y="-235.62" font-family="Times New Roman,serif" font-size="14.00">XXR</text>
</g>
</g>
</svg>
