<?xml version="1.0" encoding="UTF-8" standalone="no"?>
<!DOCTYPE svg PUBLIC "-//W3C//DTD SVG 1.1//EN"
 "http://www.w3.org/Graphics/SVG/1.1/DTD/svg11.dtd">
<!-- Generated by graphviz version 2.50.0 (20211204.2007)
 -->
<!-- Title: Mesmo numeros de 0s e 1s sendo q tem de tar na ordem 010 Pages: 1 -->
<svg width="548pt" height="335pt"
 viewBox="0.00 0.00 548.00 335.00" xmlns="http://www.w3.org/2000/svg" xmlns:xlink="http://www.w3.org/1999/xlink">
<g id="graph0" class="graph" transform="scale(1 1) rotate(0) translate(4 331)">
<title>Mesmo numeros de 0s e 1s sendo q tem de tar na ordem 010</title>
<polygon fill="white" stroke="transparent" points="-4,4 -4,-331 544,-331 544,4 -4,4"/>
<!-- Start -->
<g id="node1" class="node">
<title>Start</title>
</g>
<!-- A -->
<g id="node6" class="node">
<title>A</title>
<ellipse fill="none" stroke="black" cx="109" cy="-170" rx="18" ry="18"/>
<text text-anchor="middle" x="109" y="-166.3" font-family="Times New Roman,serif" font-size="14.00">A</text>
</g>
<!-- Start&#45;&gt;A -->
<g id="edge1" class="edge">
<title>Start&#45;&gt;A</title>
<path fill="none" stroke="black" d="M54.19,-170C62.65,-170 72.05,-170 80.6,-170"/>
<polygon fill="black" stroke="black" points="90.83,-170 80.83,-174.5 85.83,-170 80.83,-170 80.83,-170 80.83,-170 85.83,-170 80.83,-165.5 90.83,-170 90.83,-170"/>
</g>
<!-- B -->
<g id="node2" class="node">
<title>B</title>
<ellipse fill="none" stroke="black" cx="212" cy="-200" rx="18" ry="18"/>
<text text-anchor="middle" x="212" y="-196.3" font-family="Times New Roman,serif" font-size="14.00">B</text>
</g>
<!-- B&#45;&gt;B -->
<g id="edge4" class="edge">
<title>B&#45;&gt;B</title>
<path fill="none" stroke="black" d="M207.36,-217.41C206.49,-227.09 208.04,-236 212,-236 214.48,-236 216.01,-232.52 216.6,-227.54"/>
<polygon fill="black" stroke="black" points="216.64,-217.41 221.1,-227.43 216.62,-222.41 216.6,-227.41 216.6,-227.41 216.6,-227.41 216.62,-222.41 212.1,-227.39 216.64,-217.41 216.64,-217.41"/>
<text text-anchor="middle" x="212" y="-239.8" font-family="Times New Roman,serif" font-size="14.00">00R</text>
</g>
<!-- B&#45;&gt;B -->
<g id="edge5" class="edge">
<title>B&#45;&gt;B</title>
<path fill="none" stroke="black" d="M204.54,-216.59C199.86,-234.17 202.35,-254 212,-254 219.84,-254 222.95,-240.91 221.34,-226.57"/>
<polygon fill="black" stroke="black" points="219.46,-216.59 225.73,-225.58 220.38,-221.5 221.31,-226.41 221.31,-226.41 221.31,-226.41 220.38,-221.5 216.88,-227.24 219.46,-216.59 219.46,-216.59"/>
<text text-anchor="middle" x="212" y="-257.8" font-family="Times New Roman,serif" font-size="14.00">XXR</text>
</g>
<!-- C -->
<g id="node8" class="node">
<title>C</title>
<ellipse fill="none" stroke="black" cx="315" cy="-200" rx="18" ry="18"/>
<text text-anchor="middle" x="315" y="-196.3" font-family="Times New Roman,serif" font-size="14.00">C</text>
</g>
<!-- B&#45;&gt;C -->
<g id="edge6" class="edge">
<title>B&#45;&gt;C</title>
<path fill="none" stroke="black" d="M230.13,-200C245.59,-200 268.58,-200 286.59,-200"/>
<polygon fill="black" stroke="black" points="296.78,-200 286.78,-204.5 291.78,-200 286.78,-200 286.78,-200 286.78,-200 291.78,-200 286.78,-195.5 296.78,-200 296.78,-200"/>
<text text-anchor="middle" x="265.5" y="-203.8" font-family="Times New Roman,serif" font-size="14.00">1XR</text>
</g>
<!-- G -->
<g id="node3" class="node">
<title>G</title>
<ellipse fill="none" stroke="black" cx="369" cy="-103" rx="18" ry="18"/>
<text text-anchor="middle" x="369" y="-99.3" font-family="Times New Roman,serif" font-size="14.00">G</text>
</g>
<!-- G&#45;&gt;G -->
<g id="edge19" class="edge">
<title>G&#45;&gt;G</title>
<path fill="none" stroke="black" d="M359.77,-118.54C357.17,-128.91 360.25,-139 369,-139 374.74,-139 378.04,-134.65 378.9,-128.74"/>
<polygon fill="black" stroke="black" points="378.23,-118.54 383.38,-128.23 378.56,-123.53 378.89,-128.52 378.89,-128.52 378.89,-128.52 378.56,-123.53 374.4,-128.81 378.23,-118.54 378.23,-118.54"/>
<text text-anchor="middle" x="369" y="-142.8" font-family="Times New Roman,serif" font-size="14.00">00R</text>
</g>
<!-- E -->
<g id="node4" class="node">
<title>E</title>
<ellipse fill="none" stroke="black" cx="522" cy="-200" rx="18" ry="18"/>
<text text-anchor="middle" x="522" y="-196.3" font-family="Times New Roman,serif" font-size="14.00">E</text>
</g>
<!-- G&#45;&gt;E -->
<g id="edge20" class="edge">
<title>G&#45;&gt;E</title>
<path fill="none" stroke="black" d="M384.48,-112.3C410.68,-129.13 466.17,-164.78 497.74,-185.06"/>
<polygon fill="black" stroke="black" points="506.34,-190.58 495.5,-188.97 502.14,-187.88 497.93,-185.18 497.93,-185.18 497.93,-185.18 502.14,-187.88 500.36,-181.39 506.34,-190.58 506.34,-190.58"/>
<text text-anchor="middle" x="423" y="-150.8" font-family="Times New Roman,serif" font-size="14.00">ΔΔL</text>
</g>
<!-- E&#45;&gt;E -->
<g id="edge11" class="edge">
<title>E&#45;&gt;E</title>
<path fill="none" stroke="black" d="M519.12,-217.78C518.64,-227.31 519.59,-236 522,-236 523.47,-236 524.4,-232.77 524.79,-228.1"/>
<polygon fill="black" stroke="black" points="524.88,-217.78 529.29,-227.82 524.83,-222.78 524.79,-227.78 524.79,-227.78 524.79,-227.78 524.83,-222.78 520.29,-227.74 524.88,-217.78 524.88,-217.78"/>
<text text-anchor="middle" x="522" y="-239.8" font-family="Times New Roman,serif" font-size="14.00">XXL</text>
</g>
<!-- E&#45;&gt;E -->
<g id="edge12" class="edge">
<title>E&#45;&gt;E</title>
<path fill="none" stroke="black" d="M517.27,-217.42C514.58,-234.79 516.16,-254 522,-254 526.7,-254 528.64,-241.56 527.81,-227.65"/>
<polygon fill="black" stroke="black" points="526.73,-217.42 532.26,-226.89 527.25,-222.39 527.78,-227.36 527.78,-227.36 527.78,-227.36 527.25,-222.39 523.31,-227.84 526.73,-217.42 526.73,-217.42"/>
<text text-anchor="middle" x="522" y="-257.8" font-family="Times New Roman,serif" font-size="14.00">00L</text>
</g>
<!-- E&#45;&gt;E -->
<g id="edge13" class="edge">
<title>E&#45;&gt;E</title>
<path fill="none" stroke="black" d="M516.09,-217.35C510.51,-241.82 512.48,-272 522,-272 530.25,-272 532.83,-249.3 529.73,-227.32"/>
<polygon fill="black" stroke="black" points="527.91,-217.35 534.14,-226.38 528.81,-222.27 529.71,-227.19 529.71,-227.19 529.71,-227.19 528.81,-222.27 525.28,-228 527.91,-217.35 527.91,-217.35"/>
<text text-anchor="middle" x="522" y="-275.8" font-family="Times New Roman,serif" font-size="14.00">11L</text>
</g>
<!-- E&#45;&gt;A -->
<g id="edge14" class="edge">
<title>E&#45;&gt;A</title>
<path fill="none" stroke="black" d="M515.29,-217.01C503.57,-248.34 473.65,-312 424,-312 211,-312 211,-312 211,-312 155.22,-312 127.4,-238.34 116.2,-197.13"/>
<polygon fill="black" stroke="black" points="113.7,-187.41 120.55,-195.98 114.94,-192.25 116.19,-197.1 116.19,-197.1 116.19,-197.1 114.94,-192.25 111.83,-198.22 113.7,-187.41 113.7,-187.41"/>
<text text-anchor="middle" x="315" y="-315.8" font-family="Times New Roman,serif" font-size="14.00">ΔΔR</text>
</g>
<!-- F -->
<g id="node5" class="node">
<title>F</title>
<ellipse fill="none" stroke="black" cx="212" cy="-80" rx="18" ry="18"/>
<text text-anchor="middle" x="212" y="-76.3" font-family="Times New Roman,serif" font-size="14.00">F</text>
</g>
<!-- F&#45;&gt;G -->
<g id="edge18" class="edge">
<title>F&#45;&gt;G</title>
<path fill="none" stroke="black" d="M229.88,-82.51C256.67,-86.48 309.15,-94.27 341.14,-99.01"/>
<polygon fill="black" stroke="black" points="351.14,-100.5 340.59,-103.48 346.19,-99.76 341.25,-99.03 341.25,-99.03 341.25,-99.03 346.19,-99.76 341.91,-94.58 351.14,-100.5 351.14,-100.5"/>
<text text-anchor="middle" x="265.5" y="-92.8" font-family="Times New Roman,serif" font-size="14.00">0XR</text>
</g>
<!-- F&#45;&gt;F -->
<g id="edge16" class="edge">
<title>F&#45;&gt;F</title>
<path fill="none" stroke="black" d="M207.36,-97.41C206.49,-107.09 208.04,-116 212,-116 214.48,-116 216.01,-112.52 216.6,-107.54"/>
<polygon fill="black" stroke="black" points="216.64,-97.41 221.1,-107.43 216.62,-102.41 216.6,-107.41 216.6,-107.41 216.6,-107.41 216.62,-102.41 212.1,-107.39 216.64,-97.41 216.64,-97.41"/>
<text text-anchor="middle" x="212" y="-119.8" font-family="Times New Roman,serif" font-size="14.00">11R</text>
</g>
<!-- F&#45;&gt;F -->
<g id="edge17" class="edge">
<title>F&#45;&gt;F</title>
<path fill="none" stroke="black" d="M204.54,-96.59C199.86,-114.17 202.35,-134 212,-134 219.84,-134 222.95,-120.91 221.34,-106.57"/>
<polygon fill="black" stroke="black" points="219.46,-96.59 225.73,-105.58 220.38,-101.5 221.31,-106.41 221.31,-106.41 221.31,-106.41 220.38,-101.5 216.88,-107.24 219.46,-96.59 219.46,-96.59"/>
<text text-anchor="middle" x="212" y="-137.8" font-family="Times New Roman,serif" font-size="14.00">XXR</text>
</g>
<!-- A&#45;&gt;B -->
<g id="edge3" class="edge">
<title>A&#45;&gt;B</title>
<path fill="none" stroke="black" d="M126.68,-174.95C142.49,-179.65 166.49,-186.78 184.84,-192.23"/>
<polygon fill="black" stroke="black" points="194.63,-195.14 183.76,-196.6 189.84,-193.71 185.05,-192.29 185.05,-192.29 185.05,-192.29 189.84,-193.71 186.33,-187.98 194.63,-195.14 194.63,-195.14"/>
<text text-anchor="middle" x="158.5" y="-190.8" font-family="Times New Roman,serif" font-size="14.00">0XR</text>
</g>
<!-- A&#45;&gt;F -->
<g id="edge15" class="edge">
<title>A&#45;&gt;F</title>
<path fill="none" stroke="black" d="M123.2,-158.23C140.31,-142.99 170.32,-116.25 190.42,-98.33"/>
<polygon fill="black" stroke="black" points="198.11,-91.48 193.64,-101.5 194.38,-94.81 190.65,-98.14 190.65,-98.14 190.65,-98.14 194.38,-94.81 187.65,-94.78 198.11,-91.48 198.11,-91.48"/>
<text text-anchor="middle" x="158.5" y="-141.8" font-family="Times New Roman,serif" font-size="14.00">1XR</text>
</g>
<!-- A&#45;&gt;A -->
<g id="edge2" class="edge">
<title>A&#45;&gt;A</title>
<path fill="none" stroke="black" d="M102.62,-187.04C101.32,-196.86 103.45,-206 109,-206 112.47,-206 114.6,-202.43 115.4,-197.35"/>
<polygon fill="black" stroke="black" points="115.38,-187.04 119.9,-197.03 115.39,-192.04 115.4,-197.04 115.4,-197.04 115.4,-197.04 115.39,-192.04 110.9,-197.05 115.38,-187.04 115.38,-187.04"/>
<text text-anchor="middle" x="109" y="-209.8" font-family="Times New Roman,serif" font-size="14.00">XXR</text>
</g>
<!-- H -->
<g id="node9" class="node">
<title>H</title>
<ellipse fill="none" stroke="black" cx="212" cy="-22" rx="18" ry="18"/>
<ellipse fill="none" stroke="black" cx="212" cy="-22" rx="22" ry="22"/>
<text text-anchor="middle" x="212" y="-18.3" font-family="Times New Roman,serif" font-size="14.00">H</text>
</g>
<!-- A&#45;&gt;H -->
<g id="edge21" class="edge">
<title>A&#45;&gt;H</title>
<path fill="none" stroke="black" d="M116.43,-153.36C122.69,-138.1 132.98,-115.17 145,-97 157.59,-77.96 174.69,-58.67 188.32,-44.42"/>
<polygon fill="black" stroke="black" points="195.49,-37.06 191.74,-47.37 192,-40.64 188.51,-44.23 188.51,-44.23 188.51,-44.23 192,-40.64 185.29,-41.09 195.49,-37.06 195.49,-37.06"/>
<text text-anchor="middle" x="158.5" y="-100.8" font-family="Times New Roman,serif" font-size="14.00">ΔΔS</text>
</g>
<!-- D -->
<g id="node7" class="node">
<title>D</title>
<ellipse fill="none" stroke="black" cx="423" cy="-200" rx="18" ry="18"/>
<text text-anchor="middle" x="423" y="-196.3" font-family="Times New Roman,serif" font-size="14.00">D</text>
</g>
<!-- D&#45;&gt;E -->
<g id="edge10" class="edge">
<title>D&#45;&gt;E</title>
<path fill="none" stroke="black" d="M441.34,-200C455.82,-200 476.74,-200 493.5,-200"/>
<polygon fill="black" stroke="black" points="503.81,-200 493.81,-204.5 498.81,-200 493.81,-200 493.81,-200 493.81,-200 498.81,-200 493.81,-195.5 503.81,-200 503.81,-200"/>
<text text-anchor="middle" x="472.5" y="-203.8" font-family="Times New Roman,serif" font-size="14.00">ΔΔL</text>
</g>
<!-- D&#45;&gt;D -->
<g id="edge9" class="edge">
<title>D&#45;&gt;D</title>
<path fill="none" stroke="black" d="M414.64,-216.29C412.62,-226.39 415.41,-236 423,-236 427.86,-236 430.76,-232.06 431.68,-226.57"/>
<polygon fill="black" stroke="black" points="431.36,-216.29 436.17,-226.15 431.52,-221.29 431.67,-226.29 431.67,-226.29 431.67,-226.29 431.52,-221.29 427.17,-226.42 431.36,-216.29 431.36,-216.29"/>
<text text-anchor="middle" x="423" y="-239.8" font-family="Times New Roman,serif" font-size="14.00">00R</text>
</g>
<!-- C&#45;&gt;D -->
<g id="edge8" class="edge">
<title>C&#45;&gt;D</title>
<path fill="none" stroke="black" d="M333.03,-200C349.62,-200 375.12,-200 394.57,-200"/>
<polygon fill="black" stroke="black" points="404.66,-200 394.66,-204.5 399.66,-200 394.66,-200 394.66,-200 394.66,-200 399.66,-200 394.66,-195.5 404.66,-200 404.66,-200"/>
<text text-anchor="middle" x="369" y="-203.8" font-family="Times New Roman,serif" font-size="14.00">00R</text>
</g>
<!-- C&#45;&gt;C -->
<g id="edge7" class="edge">
<title>C&#45;&gt;C</title>
<path fill="none" stroke="black" d="M306.64,-216.29C304.62,-226.39 307.41,-236 315,-236 319.86,-236 322.76,-232.06 323.68,-226.57"/>
<polygon fill="black" stroke="black" points="323.36,-216.29 328.17,-226.15 323.52,-221.29 323.67,-226.29 323.67,-226.29 323.67,-226.29 323.52,-221.29 319.17,-226.42 323.36,-216.29 323.36,-216.29"/>
<text text-anchor="middle" x="315" y="-239.8" font-family="Times New Roman,serif" font-size="14.00">11R</text>
</g>
</g>
</svg>
