<?xml version="1.0" encoding="UTF-8" standalone="no"?>
<!DOCTYPE svg PUBLIC "-//W3C//DTD SVG 1.1//EN"
 "http://www.w3.org/Graphics/SVG/1.1/DTD/svg11.dtd">
<!-- Generated by graphviz version 2.50.0 (20211204.2007)
 -->
<!-- Title: So aceita 0s e 1s na mesma quantidade e ordem Pages: 1 -->
<svg width="439pt" height="261pt"
 viewBox="0.00 0.00 439.00 261.00" xmlns="http://www.w3.org/2000/svg" xmlns:xlink="http://www.w3.org/1999/xlink">
<g id="graph0" class="graph" transform="scale(1 1) rotate(0) translate(4 257)">
<title>So aceita 0s e 1s na mesma quantidade e ordem</title>
<polygon fill="white" stroke="transparent" points="-4,4 -4,-257 435,-257 435,4 -4,4"/>
<!-- Start -->
<g id="node1" class="node">
<title>Start</title>
</g>
<!-- A -->
<g id="node4" class="node">
<title>A</title>
<ellipse fill="none" stroke="black" cx="109" cy="-80" rx="18" ry="18"/>
<text text-anchor="middle" x="109" y="-76.3" font-family="Times New Roman,serif" font-size="14.00">A</text>
</g>
<!-- Start&#45;&gt;A -->
<g id="edge1" class="edge">
<title>Start&#45;&gt;A</title>
<path fill="none" stroke="black" d="M54.19,-80C62.65,-80 72.05,-80 80.6,-80"/>
<polygon fill="black" stroke="black" points="90.83,-80 80.83,-84.5 85.83,-80 80.83,-80 80.83,-80 80.83,-80 85.83,-80 80.83,-75.5 90.83,-80 90.83,-80"/>
</g>
<!-- B -->
<g id="node2" class="node">
<title>B</title>
<ellipse fill="none" stroke="black" cx="212" cy="-80" rx="18" ry="18"/>
<text text-anchor="middle" x="212" y="-76.3" font-family="Times New Roman,serif" font-size="14.00">B</text>
</g>
<!-- B&#45;&gt;B -->
<g id="edge3" class="edge">
<title>B&#45;&gt;B</title>
<path fill="none" stroke="black" d="M207.36,-97.41C206.49,-107.09 208.04,-116 212,-116 214.48,-116 216.01,-112.52 216.6,-107.54"/>
<polygon fill="black" stroke="black" points="216.64,-97.41 221.1,-107.43 216.62,-102.41 216.6,-107.41 216.6,-107.41 216.6,-107.41 216.62,-102.41 212.1,-107.39 216.64,-97.41 216.64,-97.41"/>
<text text-anchor="middle" x="212" y="-119.8" font-family="Times New Roman,serif" font-size="14.00">00R</text>
</g>
<!-- B&#45;&gt;B -->
<g id="edge4" class="edge">
<title>B&#45;&gt;B</title>
<path fill="none" stroke="black" d="M204.54,-96.59C199.86,-114.17 202.35,-134 212,-134 219.84,-134 222.95,-120.91 221.34,-106.57"/>
<polygon fill="black" stroke="black" points="219.46,-96.59 225.73,-105.58 220.38,-101.5 221.31,-106.41 221.31,-106.41 221.31,-106.41 220.38,-101.5 216.88,-107.24 219.46,-96.59 219.46,-96.59"/>
<text text-anchor="middle" x="212" y="-137.8" font-family="Times New Roman,serif" font-size="14.00">11R</text>
</g>
<!-- C -->
<g id="node5" class="node">
<title>C</title>
<ellipse fill="none" stroke="black" cx="316" cy="-130" rx="18" ry="18"/>
<text text-anchor="middle" x="316" y="-126.3" font-family="Times New Roman,serif" font-size="14.00">C</text>
</g>
<!-- B&#45;&gt;C -->
<g id="edge5" class="edge">
<title>B&#45;&gt;C</title>
<path fill="none" stroke="black" d="M228.49,-87.59C244.89,-95.63 271.02,-108.44 290.27,-117.88"/>
<polygon fill="black" stroke="black" points="299.36,-122.33 288.4,-121.97 294.87,-120.13 290.38,-117.93 290.38,-117.93 290.38,-117.93 294.87,-120.13 292.36,-113.89 299.36,-122.33 299.36,-122.33"/>
<text text-anchor="middle" x="266" y="-115.8" font-family="Times New Roman,serif" font-size="14.00">ΔΔL</text>
</g>
<!-- D -->
<g id="node3" class="node">
<title>D</title>
<ellipse fill="none" stroke="black" cx="413" cy="-169" rx="18" ry="18"/>
<text text-anchor="middle" x="413" y="-165.3" font-family="Times New Roman,serif" font-size="14.00">D</text>
</g>
<!-- D&#45;&gt;D -->
<g id="edge7" class="edge">
<title>D&#45;&gt;D</title>
<path fill="none" stroke="black" d="M408.69,-186.78C407.95,-196.31 409.39,-205 413,-205 415.2,-205 416.59,-201.77 417.18,-197.1"/>
<polygon fill="black" stroke="black" points="417.31,-186.78 421.68,-196.84 417.25,-191.78 417.18,-196.78 417.18,-196.78 417.18,-196.78 417.25,-191.78 412.68,-196.72 417.31,-186.78 417.31,-186.78"/>
<text text-anchor="middle" x="413" y="-208.8" font-family="Times New Roman,serif" font-size="14.00">00L</text>
</g>
<!-- D&#45;&gt;D -->
<g id="edge8" class="edge">
<title>D&#45;&gt;D</title>
<path fill="none" stroke="black" d="M406.04,-185.86C401.82,-203.38 404.14,-223 413,-223 420.2,-223 423.08,-210.05 421.64,-195.79"/>
<polygon fill="black" stroke="black" points="419.96,-185.86 426.07,-194.97 420.79,-190.79 421.63,-195.72 421.63,-195.72 421.63,-195.72 420.79,-190.79 417.19,-196.48 419.96,-185.86 419.96,-185.86"/>
<text text-anchor="middle" x="413" y="-226.8" font-family="Times New Roman,serif" font-size="14.00">11L</text>
</g>
<!-- D&#45;&gt;A -->
<g id="edge9" class="edge">
<title>D&#45;&gt;A</title>
<path fill="none" stroke="black" d="M395.41,-173.95C357.12,-184.42 260.42,-205.31 190,-173 159.55,-159.03 136.31,-127.1 122.92,-104.57"/>
<polygon fill="black" stroke="black" points="117.95,-95.86 126.82,-102.32 120.43,-100.21 122.91,-104.55 122.91,-104.55 122.91,-104.55 120.43,-100.21 119,-106.78 117.95,-95.86 117.95,-95.86"/>
<text text-anchor="middle" x="266" y="-193.8" font-family="Times New Roman,serif" font-size="14.00">ΔΔR</text>
</g>
<!-- A&#45;&gt;B -->
<g id="edge2" class="edge">
<title>A&#45;&gt;B</title>
<path fill="none" stroke="black" d="M127.13,-80C142.59,-80 165.58,-80 183.59,-80"/>
<polygon fill="black" stroke="black" points="193.78,-80 183.78,-84.5 188.78,-80 183.78,-80 183.78,-80 183.78,-80 188.78,-80 183.78,-75.5 193.78,-80 193.78,-80"/>
<text text-anchor="middle" x="158.5" y="-83.8" font-family="Times New Roman,serif" font-size="14.00">0ΔR</text>
</g>
<!-- E -->
<g id="node6" class="node">
<title>E</title>
<ellipse fill="none" stroke="black" cx="212" cy="-22" rx="18" ry="18"/>
<ellipse fill="none" stroke="black" cx="212" cy="-22" rx="22" ry="22"/>
<text text-anchor="middle" x="212" y="-18.3" font-family="Times New Roman,serif" font-size="14.00">E</text>
</g>
<!-- A&#45;&gt;E -->
<g id="edge10" class="edge">
<title>A&#45;&gt;E</title>
<path fill="none" stroke="black" d="M124.9,-71.44C140.37,-62.56 164.9,-48.47 183.83,-37.6"/>
<polygon fill="black" stroke="black" points="192.61,-32.56 186.18,-41.44 188.27,-35.05 183.94,-37.54 183.94,-37.54 183.94,-37.54 188.27,-35.05 181.69,-33.64 192.61,-32.56 192.61,-32.56"/>
<text text-anchor="middle" x="158.5" y="-63.8" font-family="Times New Roman,serif" font-size="14.00">ΔΔS</text>
</g>
<!-- C&#45;&gt;D -->
<g id="edge6" class="edge">
<title>C&#45;&gt;D</title>
<path fill="none" stroke="black" d="M333.12,-136.62C347.81,-142.65 369.75,-151.66 386.77,-158.64"/>
<polygon fill="black" stroke="black" points="396.12,-162.48 385.16,-162.85 391.5,-160.58 386.87,-158.68 386.87,-158.68 386.87,-158.68 391.5,-160.58 388.58,-154.52 396.12,-162.48 396.12,-162.48"/>
<text text-anchor="middle" x="364.5" y="-157.8" font-family="Times New Roman,serif" font-size="14.00">1ΔL</text>
</g>
</g>
</svg>
