<?xml version="1.0" encoding="UTF-8" standalone="no"?>
<!DOCTYPE svg PUBLIC "-//W3C//DTD SVG 1.1//EN"
 "http://www.w3.org/Graphics/SVG/1.1/DTD/svg11.dtd">
<!-- Generated by graphviz version 2.50.0 (20211204.2007)
 -->
<!-- Title: Só aceita 0s e 1s na mesma ordem sendo q o numero de 1s tem de ser maior que os 0s Pages: 1 -->
<svg width="341pt" height="294pt"
 viewBox="0.00 0.00 341.00 294.00" xmlns="http://www.w3.org/2000/svg" xmlns:xlink="http://www.w3.org/1999/xlink">
<g id="graph0" class="graph" transform="scale(1 1) rotate(0) translate(4 290)">
<title>Só aceita 0s e 1s na mesma ordem sendo q o numero de 1s tem de ser maior que os 0s</title>
<polygon fill="white" stroke="transparent" points="-4,4 -4,-290 337,-290 337,4 -4,4"/>
<!-- Start -->
<g id="node1" class="node">
<title>Start</title>
</g>
<!-- A -->
<g id="node3" class="node">
<title>A</title>
<ellipse fill="none" stroke="black" cx="109" cy="-109" rx="18" ry="18"/>
<text text-anchor="middle" x="109" y="-105.3" font-family="Times New Roman,serif" font-size="14.00">A</text>
</g>
<!-- Start&#45;&gt;A -->
<g id="edge1" class="edge">
<title>Start&#45;&gt;A</title>
<path fill="none" stroke="black" d="M54.19,-109C62.65,-109 72.05,-109 80.6,-109"/>
<polygon fill="black" stroke="black" points="90.83,-109 80.83,-113.5 85.83,-109 80.83,-109 80.83,-109 80.83,-109 85.83,-109 80.83,-104.5 90.83,-109 90.83,-109"/>
</g>
<!-- B -->
<g id="node2" class="node">
<title>B</title>
<ellipse fill="none" stroke="black" cx="208" cy="-109" rx="18" ry="18"/>
<text text-anchor="middle" x="208" y="-105.3" font-family="Times New Roman,serif" font-size="14.00">B</text>
</g>
<!-- B&#45;&gt;B -->
<g id="edge4" class="edge">
<title>B&#45;&gt;B</title>
<path fill="none" stroke="black" d="M203.69,-126.78C202.95,-136.31 204.39,-145 208,-145 210.2,-145 211.59,-141.77 212.18,-137.1"/>
<polygon fill="black" stroke="black" points="212.31,-126.78 216.68,-136.84 212.25,-131.78 212.18,-136.78 212.18,-136.78 212.18,-136.78 212.25,-131.78 207.68,-136.72 212.31,-126.78 212.31,-126.78"/>
<text text-anchor="middle" x="208" y="-148.8" font-family="Times New Roman,serif" font-size="14.00">00R</text>
</g>
<!-- B&#45;&gt;B -->
<g id="edge5" class="edge">
<title>B&#45;&gt;B</title>
<path fill="none" stroke="black" d="M201.04,-125.86C196.82,-143.38 199.14,-163 208,-163 215.2,-163 218.08,-150.05 216.64,-135.79"/>
<polygon fill="black" stroke="black" points="214.96,-125.86 221.07,-134.97 215.79,-130.79 216.63,-135.72 216.63,-135.72 216.63,-135.72 215.79,-130.79 212.19,-136.48 214.96,-125.86 214.96,-125.86"/>
<text text-anchor="middle" x="208" y="-166.8" font-family="Times New Roman,serif" font-size="14.00">XXR</text>
</g>
<!-- C -->
<g id="node5" class="node">
<title>C</title>
<ellipse fill="none" stroke="black" cx="311" cy="-169" rx="18" ry="18"/>
<text text-anchor="middle" x="311" y="-165.3" font-family="Times New Roman,serif" font-size="14.00">C</text>
</g>
<!-- B&#45;&gt;C -->
<g id="edge6" class="edge">
<title>B&#45;&gt;C</title>
<path fill="none" stroke="black" d="M223.9,-117.85C240.31,-127.6 266.93,-143.41 286.23,-154.88"/>
<polygon fill="black" stroke="black" points="295.04,-160.11 284.14,-158.87 290.74,-157.56 286.44,-155 286.44,-155 286.44,-155 290.74,-157.56 288.74,-151.13 295.04,-160.11 295.04,-160.11"/>
<text text-anchor="middle" x="257.5" y="-147.8" font-family="Times New Roman,serif" font-size="14.00">1XL</text>
</g>
<!-- A&#45;&gt;B -->
<g id="edge3" class="edge">
<title>A&#45;&gt;B</title>
<path fill="none" stroke="black" d="M127.34,-109C141.82,-109 162.74,-109 179.5,-109"/>
<polygon fill="black" stroke="black" points="189.81,-109 179.81,-113.5 184.81,-109 179.81,-109 179.81,-109 179.81,-109 184.81,-109 179.81,-104.5 189.81,-109 189.81,-109"/>
<text text-anchor="middle" x="158.5" y="-112.8" font-family="Times New Roman,serif" font-size="14.00">0XR</text>
</g>
<!-- A&#45;&gt;A -->
<g id="edge2" class="edge">
<title>A&#45;&gt;A</title>
<path fill="none" stroke="black" d="M102.62,-126.04C101.32,-135.86 103.45,-145 109,-145 112.47,-145 114.6,-141.43 115.4,-136.35"/>
<polygon fill="black" stroke="black" points="115.38,-126.04 119.9,-136.03 115.39,-131.04 115.4,-136.04 115.4,-136.04 115.4,-136.04 115.39,-131.04 110.9,-136.05 115.38,-126.04 115.38,-126.04"/>
<text text-anchor="middle" x="109" y="-148.8" font-family="Times New Roman,serif" font-size="14.00">XXR</text>
</g>
<!-- D -->
<g id="node4" class="node">
<title>D</title>
<ellipse fill="none" stroke="black" cx="208" cy="-22" rx="18" ry="18"/>
<text text-anchor="middle" x="208" y="-18.3" font-family="Times New Roman,serif" font-size="14.00">D</text>
</g>
<!-- A&#45;&gt;D -->
<g id="edge11" class="edge">
<title>A&#45;&gt;D</title>
<path fill="none" stroke="black" d="M123.08,-97.27C139.37,-82.66 167.38,-57.53 186.52,-40.36"/>
<polygon fill="black" stroke="black" points="194.13,-33.55 189.69,-43.57 190.4,-36.89 186.68,-40.22 186.68,-40.22 186.68,-40.22 190.4,-36.89 183.68,-36.87 194.13,-33.55 194.13,-33.55"/>
<text text-anchor="middle" x="158.5" y="-78.8" font-family="Times New Roman,serif" font-size="14.00">11R</text>
</g>
<!-- D&#45;&gt;D -->
<g id="edge12" class="edge">
<title>D&#45;&gt;D</title>
<path fill="none" stroke="black" d="M199.64,-38.29C197.62,-48.39 200.41,-58 208,-58 212.86,-58 215.76,-54.06 216.68,-48.57"/>
<polygon fill="black" stroke="black" points="216.36,-38.29 221.17,-48.15 216.52,-43.29 216.67,-48.29 216.67,-48.29 216.67,-48.29 216.52,-43.29 212.17,-48.42 216.36,-38.29 216.36,-38.29"/>
<text text-anchor="middle" x="208" y="-61.8" font-family="Times New Roman,serif" font-size="14.00">11R</text>
</g>
<!-- E -->
<g id="node6" class="node">
<title>E</title>
<ellipse fill="none" stroke="black" cx="311" cy="-22" rx="18" ry="18"/>
<ellipse fill="none" stroke="black" cx="311" cy="-22" rx="22" ry="22"/>
<text text-anchor="middle" x="311" y="-18.3" font-family="Times New Roman,serif" font-size="14.00">E</text>
</g>
<!-- D&#45;&gt;E -->
<g id="edge13" class="edge">
<title>D&#45;&gt;E</title>
<path fill="none" stroke="black" d="M226.13,-22C240.49,-22 261.35,-22 278.68,-22"/>
<polygon fill="black" stroke="black" points="288.92,-22 278.92,-26.5 283.92,-22 278.92,-22 278.92,-22 278.92,-22 283.92,-22 278.92,-17.5 288.92,-22 288.92,-22"/>
<text text-anchor="middle" x="257.5" y="-25.8" font-family="Times New Roman,serif" font-size="14.00">ΔΔS</text>
</g>
<!-- C&#45;&gt;A -->
<g id="edge10" class="edge">
<title>C&#45;&gt;A</title>
<path fill="none" stroke="black" d="M295.81,-179.05C272.82,-194.01 226.33,-218.67 190,-202 159.55,-188.03 136.31,-156.1 122.92,-133.57"/>
<polygon fill="black" stroke="black" points="117.95,-124.86 126.82,-131.32 120.43,-129.21 122.91,-133.55 122.91,-133.55 122.91,-133.55 120.43,-129.21 119,-135.78 117.95,-124.86 117.95,-124.86"/>
<text text-anchor="middle" x="208" y="-210.8" font-family="Times New Roman,serif" font-size="14.00">ΔΔR</text>
</g>
<!-- C&#45;&gt;C -->
<g id="edge7" class="edge">
<title>C&#45;&gt;C</title>
<path fill="none" stroke="black" d="M307.88,-186.78C307.35,-196.31 308.39,-205 311,-205 312.59,-205 313.59,-201.77 314.02,-197.1"/>
<polygon fill="black" stroke="black" points="314.12,-186.78 318.52,-196.82 314.07,-191.78 314.02,-196.78 314.02,-196.78 314.02,-196.78 314.07,-191.78 309.52,-196.74 314.12,-186.78 314.12,-186.78"/>
<text text-anchor="middle" x="311" y="-208.8" font-family="Times New Roman,serif" font-size="14.00">00L</text>
</g>
<!-- C&#45;&gt;C -->
<g id="edge8" class="edge">
<title>C&#45;&gt;C</title>
<path fill="none" stroke="black" d="M305.88,-186.42C302.96,-203.79 304.67,-223 311,-223 316.09,-223 318.19,-210.56 317.3,-196.65"/>
<polygon fill="black" stroke="black" points="316.12,-186.42 321.74,-195.84 316.69,-191.39 317.27,-196.35 317.27,-196.35 317.27,-196.35 316.69,-191.39 312.79,-196.87 316.12,-186.42 316.12,-186.42"/>
<text text-anchor="middle" x="311" y="-226.8" font-family="Times New Roman,serif" font-size="14.00">11L</text>
</g>
<!-- C&#45;&gt;C -->
<g id="edge9" class="edge">
<title>C&#45;&gt;C</title>
<path fill="none" stroke="black" d="M304.69,-185.99C298.54,-210.52 300.64,-241 311,-241 319.98,-241 322.76,-218.08 319.33,-195.99"/>
<polygon fill="black" stroke="black" points="317.31,-185.99 323.7,-194.91 318.3,-190.89 319.29,-195.8 319.29,-195.8 319.29,-195.8 318.3,-190.89 314.88,-196.68 317.31,-185.99 317.31,-185.99"/>
<text text-anchor="middle" x="311" y="-244.8" font-family="Times New Roman,serif" font-size="14.00">XXL</text>
</g>
</g>
</svg>
