<?xml version="1.0" encoding="UTF-8" standalone="no"?>
<!DOCTYPE svg PUBLIC "-//W3C//DTD SVG 1.1//EN"
 "http://www.w3.org/Graphics/SVG/1.1/DTD/svg11.dtd">
<!-- Generated by graphviz version 2.50.0 (20211204.2007)
 -->
<!-- Title: A sequencia tem de começar e acabar com o mesmo simbolo Pages: 1 -->
<svg width="301pt" height="186pt"
 viewBox="0.00 0.00 301.00 186.00" xmlns="http://www.w3.org/2000/svg" xmlns:xlink="http://www.w3.org/1999/xlink">
<g id="graph0" class="graph" transform="scale(1 1) rotate(0) translate(4 182)">
<title>A sequencia tem de começar e acabar com o mesmo simbolo</title>
<polygon fill="white" stroke="transparent" points="-4,4 -4,-182 297,-182 297,4 -4,4"/>
<!-- Start -->
<g id="node1" class="node">
<title>Start</title>
</g>
<!-- A -->
<g id="node3" class="node">
<title>A</title>
<ellipse fill="none" stroke="black" cx="109" cy="-72" rx="18" ry="18"/>
<text text-anchor="middle" x="109" y="-68.3" font-family="Times New Roman,serif" font-size="14.00">A</text>
</g>
<!-- Start&#45;&gt;A -->
<g id="edge1" class="edge">
<title>Start&#45;&gt;A</title>
<path fill="none" stroke="black" d="M54.19,-72C62.65,-72 72.05,-72 80.6,-72"/>
<polygon fill="black" stroke="black" points="90.83,-72 80.83,-76.5 85.83,-72 80.83,-72 80.83,-72 80.83,-72 85.83,-72 80.83,-67.5 90.83,-72 90.83,-72"/>
</g>
<!-- B -->
<g id="node2" class="node">
<title>B</title>
<ellipse fill="none" stroke="black" cx="188" cy="-99" rx="18" ry="18"/>
<text text-anchor="middle" x="188" y="-95.3" font-family="Times New Roman,serif" font-size="14.00">B</text>
</g>
<!-- B&#45;&gt;B -->
<g id="edge3" class="edge">
<title>B&#45;&gt;B</title>
<path fill="none" stroke="black" d="M181.27,-116.04C179.89,-125.86 182.14,-135 188,-135 191.66,-135 193.92,-131.43 194.75,-126.35"/>
<polygon fill="black" stroke="black" points="194.73,-116.04 199.25,-126.03 194.74,-121.04 194.75,-126.04 194.75,-126.04 194.75,-126.04 194.74,-121.04 190.25,-126.05 194.73,-116.04 194.73,-116.04"/>
<text text-anchor="middle" x="188" y="-138.8" font-family="Times New Roman,serif" font-size="14.00">1</text>
</g>
<!-- D -->
<g id="node5" class="node">
<title>D</title>
<ellipse fill="none" stroke="black" cx="271" cy="-123" rx="18" ry="18"/>
<ellipse fill="none" stroke="black" cx="271" cy="-123" rx="22" ry="22"/>
<text text-anchor="middle" x="271" y="-119.3" font-family="Times New Roman,serif" font-size="14.00">D</text>
</g>
<!-- B&#45;&gt;D -->
<g id="edge4" class="edge">
<title>B&#45;&gt;D</title>
<path fill="none" stroke="black" d="M205.39,-103.86C215.26,-106.78 228.13,-110.59 239.78,-114.05"/>
<polygon fill="black" stroke="black" points="249.61,-116.96 238.74,-118.43 244.81,-115.54 240.02,-114.12 240.02,-114.12 240.02,-114.12 244.81,-115.54 241.3,-109.8 249.61,-116.96 249.61,-116.96"/>
<text text-anchor="middle" x="227.5" y="-114.8" font-family="Times New Roman,serif" font-size="14.00">0</text>
</g>
<!-- A&#45;&gt;B -->
<g id="edge2" class="edge">
<title>A&#45;&gt;B</title>
<path fill="none" stroke="black" d="M126.33,-77.73C136.44,-81.27 149.64,-85.9 161.14,-89.93"/>
<polygon fill="black" stroke="black" points="170.69,-93.28 159.77,-94.22 165.98,-91.63 161.26,-89.97 161.26,-89.97 161.26,-89.97 165.98,-91.63 162.75,-85.73 170.69,-93.28 170.69,-93.28"/>
<text text-anchor="middle" x="148.5" y="-89.8" font-family="Times New Roman,serif" font-size="14.00">0</text>
</g>
<!-- C -->
<g id="node4" class="node">
<title>C</title>
<ellipse fill="none" stroke="black" cx="188" cy="-45" rx="18" ry="18"/>
<text text-anchor="middle" x="188" y="-41.3" font-family="Times New Roman,serif" font-size="14.00">C</text>
</g>
<!-- A&#45;&gt;C -->
<g id="edge7" class="edge">
<title>A&#45;&gt;C</title>
<path fill="none" stroke="black" d="M126.33,-66.27C136.44,-62.73 149.64,-58.1 161.14,-54.07"/>
<polygon fill="black" stroke="black" points="170.69,-50.72 162.75,-58.27 165.98,-52.37 161.26,-54.03 161.26,-54.03 161.26,-54.03 165.98,-52.37 159.77,-49.78 170.69,-50.72 170.69,-50.72"/>
<text text-anchor="middle" x="148.5" y="-62.8" font-family="Times New Roman,serif" font-size="14.00">1</text>
</g>
<!-- E -->
<g id="node6" class="node">
<title>E</title>
<ellipse fill="none" stroke="black" cx="271" cy="-22" rx="18" ry="18"/>
<ellipse fill="none" stroke="black" cx="271" cy="-22" rx="22" ry="22"/>
<text text-anchor="middle" x="271" y="-18.3" font-family="Times New Roman,serif" font-size="14.00">E</text>
</g>
<!-- C&#45;&gt;E -->
<g id="edge8" class="edge">
<title>C&#45;&gt;E</title>
<path fill="none" stroke="black" d="M205.39,-40.35C215.26,-37.54 228.13,-33.89 239.78,-30.58"/>
<polygon fill="black" stroke="black" points="249.61,-27.79 241.22,-34.85 244.8,-29.16 239.99,-30.52 239.99,-30.52 239.99,-30.52 244.8,-29.16 238.76,-26.19 249.61,-27.79 249.61,-27.79"/>
<text text-anchor="middle" x="227.5" y="-37.8" font-family="Times New Roman,serif" font-size="14.00">1</text>
</g>
<!-- D&#45;&gt;B -->
<g id="edge5" class="edge">
<title>D&#45;&gt;B</title>
<path fill="none" stroke="black" d="M255.72,-106.67C248.96,-100.16 240.33,-93.42 231,-90 225.66,-88.04 219.78,-88.05 214.14,-89.03"/>
<polygon fill="black" stroke="black" points="204.45,-91.61 212.96,-84.69 209.28,-90.32 214.12,-89.03 214.12,-89.03 214.12,-89.03 209.28,-90.32 215.28,-93.38 204.45,-91.61 204.45,-91.61"/>
<text text-anchor="middle" x="227.5" y="-93.8" font-family="Times New Roman,serif" font-size="14.00">1</text>
</g>
<!-- D&#45;&gt;D -->
<g id="edge6" class="edge">
<title>D&#45;&gt;D</title>
<path fill="none" stroke="black" d="M263.32,-143.99C262.37,-154.09 264.93,-163 271,-163 274.89,-163 277.34,-159.34 278.35,-154.06"/>
<polygon fill="black" stroke="black" points="278.68,-143.99 282.85,-154.14 278.52,-148.99 278.35,-153.99 278.35,-153.99 278.35,-153.99 278.52,-148.99 273.85,-153.83 278.68,-143.99 278.68,-143.99"/>
<text text-anchor="middle" x="271" y="-166.8" font-family="Times New Roman,serif" font-size="14.00">0</text>
</g>
<!-- E&#45;&gt;C -->
<g id="edge10" class="edge">
<title>E&#45;&gt;C</title>
<path fill="none" stroke="black" d="M250.32,-14.08C242,-11.87 232.34,-10.84 224,-14 218.07,-16.25 212.5,-20.01 207.62,-24.16"/>
<polygon fill="black" stroke="black" points="200.12,-31.3 204.26,-21.14 203.74,-27.85 207.36,-24.4 207.36,-24.4 207.36,-24.4 203.74,-27.85 210.46,-27.66 200.12,-31.3 200.12,-31.3"/>
<text text-anchor="middle" x="227.5" y="-17.8" font-family="Times New Roman,serif" font-size="14.00">0</text>
</g>
<!-- E&#45;&gt;E -->
<g id="edge9" class="edge">
<title>E&#45;&gt;E</title>
<path fill="none" stroke="black" d="M263.32,-42.99C262.37,-53.09 264.93,-62 271,-62 274.89,-62 277.34,-58.34 278.35,-53.06"/>
<polygon fill="black" stroke="black" points="278.68,-42.99 282.85,-53.14 278.52,-47.99 278.35,-52.99 278.35,-52.99 278.35,-52.99 278.52,-47.99 273.85,-52.83 278.68,-42.99 278.68,-42.99"/>
<text text-anchor="middle" x="271" y="-65.8" font-family="Times New Roman,serif" font-size="14.00">1</text>
</g>
</g>
</svg>
