<?xml version="1.0" encoding="UTF-8" standalone="no"?>
<!DOCTYPE svg PUBLIC "-//W3C//DTD SVG 1.1//EN"
 "http://www.w3.org/Graphics/SVG/1.1/DTD/svg11.dtd">
<!-- Generated by graphviz version 2.50.0 (20211204.2007)
 -->
<!-- Title: Aceita sequencias pares de zeros Pages: 1 -->
<svg width="301pt" height="85pt"
 viewBox="0.00 0.00 301.00 85.00" xmlns="http://www.w3.org/2000/svg" xmlns:xlink="http://www.w3.org/1999/xlink">
<g id="graph0" class="graph" transform="scale(1 1) rotate(0) translate(4 81)">
<title>Aceita sequencias pares de zeros</title>
<polygon fill="white" stroke="transparent" points="-4,4 -4,-81 297,-81 297,4 -4,4"/>
<!-- Start -->
<g id="node1" class="node">
<title>Start</title>
</g>
<!-- A -->
<g id="node3" class="node">
<title>A</title>
<ellipse fill="none" stroke="black" cx="109" cy="-22" rx="18" ry="18"/>
<text text-anchor="middle" x="109" y="-18.3" font-family="Times New Roman,serif" font-size="14.00">A</text>
</g>
<!-- Start&#45;&gt;A -->
<g id="edge1" class="edge">
<title>Start&#45;&gt;A</title>
<path fill="none" stroke="black" d="M54.19,-22C62.65,-22 72.05,-22 80.6,-22"/>
<polygon fill="black" stroke="black" points="90.83,-22 80.83,-26.5 85.83,-22 80.83,-22 80.83,-22 80.83,-22 85.83,-22 80.83,-17.5 90.83,-22 90.83,-22"/>
</g>
<!-- B -->
<g id="node2" class="node">
<title>B</title>
<ellipse fill="none" stroke="black" cx="188" cy="-22" rx="18" ry="18"/>
<text text-anchor="middle" x="188" y="-18.3" font-family="Times New Roman,serif" font-size="14.00">B</text>
</g>
<!-- B&#45;&gt;B -->
<g id="edge4" class="edge">
<title>B&#45;&gt;B</title>
<path fill="none" stroke="black" d="M181.27,-39.04C179.89,-48.86 182.14,-58 188,-58 191.66,-58 193.92,-54.43 194.75,-49.35"/>
<polygon fill="black" stroke="black" points="194.73,-39.04 199.25,-49.03 194.74,-44.04 194.75,-49.04 194.75,-49.04 194.75,-49.04 194.74,-44.04 190.25,-49.05 194.73,-39.04 194.73,-39.04"/>
<text text-anchor="middle" x="188" y="-61.8" font-family="Times New Roman,serif" font-size="14.00">1</text>
</g>
<!-- C -->
<g id="node4" class="node">
<title>C</title>
<ellipse fill="none" stroke="black" cx="271" cy="-22" rx="18" ry="18"/>
<ellipse fill="none" stroke="black" cx="271" cy="-22" rx="22" ry="22"/>
<text text-anchor="middle" x="271" y="-18.3" font-family="Times New Roman,serif" font-size="14.00">C</text>
</g>
<!-- B&#45;&gt;C -->
<g id="edge5" class="edge">
<title>B&#45;&gt;C</title>
<path fill="none" stroke="black" d="M206.18,-22C215.61,-22 227.6,-22 238.64,-22"/>
<polygon fill="black" stroke="black" points="248.81,-22 238.81,-26.5 243.81,-22 238.81,-22 238.81,-22 238.81,-22 243.81,-22 238.81,-17.5 248.81,-22 248.81,-22"/>
<text text-anchor="middle" x="227.5" y="-25.8" font-family="Times New Roman,serif" font-size="14.00">0</text>
</g>
<!-- A&#45;&gt;B -->
<g id="edge3" class="edge">
<title>A&#45;&gt;B</title>
<path fill="none" stroke="black" d="M127.09,-22C136.66,-22 148.82,-22 159.68,-22"/>
<polygon fill="black" stroke="black" points="169.96,-22 159.96,-26.5 164.96,-22 159.96,-22 159.96,-22 159.96,-22 164.96,-22 159.96,-17.5 169.96,-22 169.96,-22"/>
<text text-anchor="middle" x="148.5" y="-25.8" font-family="Times New Roman,serif" font-size="14.00">0</text>
</g>
<!-- A&#45;&gt;A -->
<g id="edge2" class="edge">
<title>A&#45;&gt;A</title>
<path fill="none" stroke="black" d="M102.62,-39.04C101.32,-48.86 103.45,-58 109,-58 112.47,-58 114.6,-54.43 115.4,-49.35"/>
<polygon fill="black" stroke="black" points="115.38,-39.04 119.9,-49.03 115.39,-44.04 115.4,-49.04 115.4,-49.04 115.4,-49.04 115.39,-44.04 110.9,-49.05 115.38,-39.04 115.38,-39.04"/>
<text text-anchor="middle" x="109" y="-61.8" font-family="Times New Roman,serif" font-size="14.00">1</text>
</g>
<!-- C&#45;&gt;B -->
<g id="edge6" class="edge">
<title>C&#45;&gt;B</title>
<path fill="none" stroke="black" d="M252.93,-9.2C244.43,-4.33 233.88,-0.49 224,-3 220.04,-4.01 216.05,-5.56 212.24,-7.35"/>
<polygon fill="black" stroke="black" points="203.31,-12.13 210,-3.45 207.72,-9.77 212.13,-7.41 212.13,-7.41 212.13,-7.41 207.72,-9.77 214.25,-11.38 203.31,-12.13 203.31,-12.13"/>
<text text-anchor="middle" x="227.5" y="-6.8" font-family="Times New Roman,serif" font-size="14.00">0</text>
</g>
<!-- C&#45;&gt;C -->
<g id="edge7" class="edge">
<title>C&#45;&gt;C</title>
<path fill="none" stroke="black" d="M263.32,-42.99C262.37,-53.09 264.93,-62 271,-62 274.89,-62 277.34,-58.34 278.35,-53.06"/>
<polygon fill="black" stroke="black" points="278.68,-42.99 282.85,-53.14 278.52,-47.99 278.35,-52.99 278.35,-52.99 278.35,-52.99 278.52,-47.99 273.85,-52.83 278.68,-42.99 278.68,-42.99"/>
<text text-anchor="middle" x="271" y="-65.8" font-family="Times New Roman,serif" font-size="14.00">1</text>
</g>
</g>
</svg>
