<?xml version="1.0" encoding="UTF-8" standalone="no"?>
<!DOCTYPE svg PUBLIC "-//W3C//DTD SVG 1.1//EN"
 "http://www.w3.org/Graphics/SVG/1.1/DTD/svg11.dtd">
<!-- Generated by graphviz version 2.50.0 (20211204.2007)
 -->
<!-- Title: Codigo Postal Pages: 1 -->
<svg width="854pt" height="1061pt"
 viewBox="0.00 0.00 854.00 1061.00" xmlns="http://www.w3.org/2000/svg" xmlns:xlink="http://www.w3.org/1999/xlink">
<g id="graph0" class="graph" transform="scale(1 1) rotate(0) translate(4 1057)">
<title>Codigo Postal</title>
<polygon fill="white" stroke="transparent" points="-4,4 -4,-1057 850,-1057 850,4 -4,4"/>
<!-- Start -->
<g id="node1" class="node">
<title>Start</title>
</g>
<!-- A -->
<g id="node8" class="node">
<title>A</title>
<ellipse fill="none" stroke="black" cx="109" cy="-593" rx="18" ry="18"/>
<text text-anchor="middle" x="109" y="-589.3" font-family="Times New Roman,serif" font-size="14.00">A</text>
</g>
<!-- Start&#45;&gt;A -->
<g id="edge1" class="edge">
<title>Start&#45;&gt;A</title>
<path fill="none" stroke="black" d="M54.19,-593C62.65,-593 72.05,-593 80.6,-593"/>
<polygon fill="black" stroke="black" points="90.83,-593 80.83,-597.5 85.83,-593 80.83,-593 80.83,-593 80.83,-593 85.83,-593 80.83,-588.5 90.83,-593 90.83,-593"/>
</g>
<!-- B -->
<g id="node2" class="node">
<title>B</title>
<ellipse fill="none" stroke="black" cx="188" cy="-669" rx="18" ry="18"/>
<text text-anchor="middle" x="188" y="-665.3" font-family="Times New Roman,serif" font-size="14.00">B</text>
</g>
<!-- L -->
<g id="node6" class="node">
<title>L</title>
<ellipse fill="none" stroke="black" cx="828" cy="-532" rx="18" ry="18"/>
<text text-anchor="middle" x="828" y="-528.3" font-family="Times New Roman,serif" font-size="14.00">L</text>
</g>
<!-- B&#45;&gt;L -->
<g id="edge23" class="edge">
<title>B&#45;&gt;L</title>
<path fill="none" stroke="black" d="M188.87,-687.05C188.81,-761.13 193.44,-1038 266,-1038 266,-1038 266,-1038 746,-1038 782.86,-1038 779.92,-1003.82 792,-969 818.35,-893.05 825.05,-644.89 826.58,-560.44"/>
<polygon fill="black" stroke="black" points="826.75,-550.31 831.08,-560.38 826.67,-555.31 826.58,-560.3 826.58,-560.3 826.58,-560.3 826.67,-555.31 822.08,-560.23 826.75,-550.31 826.75,-550.31"/>
<text text-anchor="middle" x="504" y="-1041.8" font-family="Times New Roman,serif" font-size="14.00">&#45;</text>
</g>
<!-- C -->
<g id="node10" class="node">
<title>C</title>
<ellipse fill="none" stroke="black" cx="267" cy="-707" rx="18" ry="18"/>
<text text-anchor="middle" x="267" y="-703.3" font-family="Times New Roman,serif" font-size="14.00">C</text>
</g>
<!-- B&#45;&gt;C -->
<g id="edge13" class="edge">
<title>B&#45;&gt;C</title>
<path fill="none" stroke="black" d="M189.97,-686.9C192.52,-726.24 200.88,-818.2 224,-837 258.74,-865.25 265.08,-781.13 266.02,-735.02"/>
<polygon fill="black" stroke="black" points="266.15,-725 270.52,-735.06 266.08,-730 266.02,-735 266.02,-735 266.02,-735 266.08,-730 261.52,-734.94 266.15,-725 266.15,-725"/>
<text text-anchor="middle" x="227.5" y="-843.8" font-family="Times New Roman,serif" font-size="14.00">0</text>
</g>
<!-- B&#45;&gt;C -->
<g id="edge14" class="edge">
<title>B&#45;&gt;C</title>
<path fill="none" stroke="black" d="M191.13,-686.75C195.41,-719.05 206.19,-785.35 224,-799 248.14,-817.5 258.84,-768.83 263.24,-735.42"/>
<polygon fill="black" stroke="black" points="264.45,-725.22 267.74,-735.68 263.86,-730.18 263.27,-735.15 263.27,-735.15 263.27,-735.15 263.86,-730.18 258.8,-734.62 264.45,-725.22 264.45,-725.22"/>
<text text-anchor="middle" x="227.5" y="-805.8" font-family="Times New Roman,serif" font-size="14.00">1</text>
</g>
<!-- B&#45;&gt;C -->
<g id="edge15" class="edge">
<title>B&#45;&gt;C</title>
<path fill="none" stroke="black" d="M190.06,-687.21C192.41,-708.94 199.94,-744.41 224,-761 238.34,-770.89 250.03,-751.73 257.41,-733.55"/>
<polygon fill="black" stroke="black" points="260.95,-724.03 261.68,-734.97 259.21,-728.71 257.46,-733.4 257.46,-733.4 257.46,-733.4 259.21,-728.71 253.25,-731.83 260.95,-724.03 260.95,-724.03"/>
<text text-anchor="middle" x="227.5" y="-766.8" font-family="Times New Roman,serif" font-size="14.00">2</text>
</g>
<!-- B&#45;&gt;C -->
<g id="edge16" class="edge">
<title>B&#45;&gt;C</title>
<path fill="none" stroke="black" d="M194.78,-685.77C200.17,-698.52 209.57,-715.16 224,-723 230.08,-726.3 236.99,-725.4 243.42,-722.8"/>
<polygon fill="black" stroke="black" points="252.35,-718.09 245.61,-726.74 247.93,-720.42 243.51,-722.76 243.51,-722.76 243.51,-722.76 247.93,-720.42 241.41,-718.78 252.35,-718.09 252.35,-718.09"/>
<text text-anchor="middle" x="227.5" y="-728.8" font-family="Times New Roman,serif" font-size="14.00">3</text>
</g>
<!-- B&#45;&gt;C -->
<g id="edge17" class="edge">
<title>B&#45;&gt;C</title>
<path fill="none" stroke="black" d="M204.58,-676.69C215.12,-681.89 229.27,-688.87 241.33,-694.82"/>
<polygon fill="black" stroke="black" points="250.44,-699.32 239.48,-698.93 245.96,-697.11 241.47,-694.9 241.47,-694.9 241.47,-694.9 245.96,-697.11 243.47,-690.86 250.44,-699.32 250.44,-699.32"/>
<text text-anchor="middle" x="227.5" y="-692.8" font-family="Times New Roman,serif" font-size="14.00">4</text>
</g>
<!-- B&#45;&gt;C -->
<g id="edge18" class="edge">
<title>B&#45;&gt;C</title>
<path fill="none" stroke="black" d="M205.62,-664.78C213.62,-663.59 223.16,-663.44 231,-667 238.8,-670.54 245.54,-676.77 250.97,-683.27"/>
<polygon fill="black" stroke="black" points="257.13,-691.48 247.53,-686.18 254.13,-687.48 251.13,-683.48 251.13,-683.48 251.13,-683.48 254.13,-687.48 254.73,-680.78 257.13,-691.48 257.13,-691.48"/>
<text text-anchor="middle" x="227.5" y="-670.8" font-family="Times New Roman,serif" font-size="14.00">5</text>
</g>
<!-- B&#45;&gt;C -->
<g id="edge19" class="edge">
<title>B&#45;&gt;C</title>
<path fill="none" stroke="black" d="M200.44,-655.38C208.91,-647.03 220.7,-638.99 231,-645 244.01,-652.6 252.57,-667.02 257.96,-680.05"/>
<polygon fill="black" stroke="black" points="261.49,-689.6 253.81,-681.78 259.76,-684.91 258.03,-680.22 258.03,-680.22 258.03,-680.22 259.76,-684.91 262.25,-678.66 261.49,-689.6 261.49,-689.6"/>
<text text-anchor="middle" x="227.5" y="-648.8" font-family="Times New Roman,serif" font-size="14.00">6</text>
</g>
<!-- B&#45;&gt;C -->
<g id="edge20" class="edge">
<title>B&#45;&gt;C</title>
<path fill="none" stroke="black" d="M195.38,-652.25C202.84,-635.34 216.06,-613.04 231,-623 249.52,-635.35 258.26,-659.55 262.37,-678.82"/>
<polygon fill="black" stroke="black" points="264.21,-688.91 257.99,-679.88 263.31,-683.99 262.42,-679.07 262.42,-679.07 262.42,-679.07 263.31,-683.99 266.84,-678.26 264.21,-688.91 264.21,-688.91"/>
<text text-anchor="middle" x="227.5" y="-626.8" font-family="Times New Roman,serif" font-size="14.00">7</text>
</g>
<!-- B&#45;&gt;C -->
<g id="edge21" class="edge">
<title>B&#45;&gt;C</title>
<path fill="none" stroke="black" d="M192.37,-651.53C197.94,-626.82 210.53,-586.2 231,-601 255.32,-618.58 263.03,-653.69 265.32,-678.68"/>
<polygon fill="black" stroke="black" points="266,-688.69 260.83,-679.02 265.66,-683.7 265.32,-678.71 265.32,-678.71 265.32,-678.71 265.66,-683.7 269.81,-678.41 266,-688.69 266,-688.69"/>
<text text-anchor="middle" x="227.5" y="-604.8" font-family="Times New Roman,serif" font-size="14.00">8</text>
</g>
<!-- B&#45;&gt;C -->
<g id="edge22" class="edge">
<title>B&#45;&gt;C</title>
<path fill="none" stroke="black" d="M190.63,-651.17C194.22,-619.58 204.68,-558.91 231,-579 246.82,-591.08 257.23,-645.17 262.33,-679.05"/>
<polygon fill="black" stroke="black" points="263.79,-689.27 257.92,-680.01 263.08,-684.32 262.37,-679.37 262.37,-679.37 262.37,-679.37 263.08,-684.32 266.83,-678.73 263.79,-689.27 263.79,-689.27"/>
<text text-anchor="middle" x="227.5" y="-582.8" font-family="Times New Roman,serif" font-size="14.00">9</text>
</g>
<!-- G -->
<g id="node3" class="node">
<title>G</title>
<ellipse fill="none" stroke="black" cx="583" cy="-355" rx="18" ry="18"/>
<text text-anchor="middle" x="583" y="-351.3" font-family="Times New Roman,serif" font-size="14.00">G</text>
</g>
<!-- H -->
<g id="node5" class="node">
<title>H</title>
<ellipse fill="none" stroke="black" cx="662" cy="-393" rx="18" ry="18"/>
<text text-anchor="middle" x="662" y="-389.3" font-family="Times New Roman,serif" font-size="14.00">H</text>
</g>
<!-- G&#45;&gt;H -->
<g id="edge68" class="edge">
<title>G&#45;&gt;H</title>
<path fill="none" stroke="black" d="M584.97,-372.9C587.52,-412.24 595.88,-504.2 619,-523 653.74,-551.25 660.08,-467.13 661.02,-421.02"/>
<polygon fill="black" stroke="black" points="661.15,-411 665.52,-421.06 661.08,-416 661.02,-421 661.02,-421 661.02,-421 661.08,-416 656.52,-420.94 661.15,-411 661.15,-411"/>
<text text-anchor="middle" x="622.5" y="-529.8" font-family="Times New Roman,serif" font-size="14.00">0</text>
</g>
<!-- G&#45;&gt;H -->
<g id="edge69" class="edge">
<title>G&#45;&gt;H</title>
<path fill="none" stroke="black" d="M586.13,-372.75C590.41,-405.05 601.19,-471.35 619,-485 643.14,-503.5 653.84,-454.83 658.24,-421.42"/>
<polygon fill="black" stroke="black" points="659.45,-411.22 662.74,-421.68 658.86,-416.18 658.27,-421.15 658.27,-421.15 658.27,-421.15 658.86,-416.18 653.8,-420.62 659.45,-411.22 659.45,-411.22"/>
<text text-anchor="middle" x="622.5" y="-491.8" font-family="Times New Roman,serif" font-size="14.00">1</text>
</g>
<!-- G&#45;&gt;H -->
<g id="edge70" class="edge">
<title>G&#45;&gt;H</title>
<path fill="none" stroke="black" d="M585.06,-373.21C587.41,-394.94 594.94,-430.41 619,-447 633.34,-456.89 645.03,-437.73 652.41,-419.55"/>
<polygon fill="black" stroke="black" points="655.95,-410.03 656.68,-420.97 654.21,-414.71 652.46,-419.4 652.46,-419.4 652.46,-419.4 654.21,-414.71 648.25,-417.83 655.95,-410.03 655.95,-410.03"/>
<text text-anchor="middle" x="622.5" y="-452.8" font-family="Times New Roman,serif" font-size="14.00">2</text>
</g>
<!-- G&#45;&gt;H -->
<g id="edge71" class="edge">
<title>G&#45;&gt;H</title>
<path fill="none" stroke="black" d="M589.78,-371.77C595.17,-384.52 604.57,-401.16 619,-409 625.08,-412.3 631.99,-411.4 638.42,-408.8"/>
<polygon fill="black" stroke="black" points="647.35,-404.09 640.61,-412.74 642.93,-406.42 638.51,-408.76 638.51,-408.76 638.51,-408.76 642.93,-406.42 636.41,-404.78 647.35,-404.09 647.35,-404.09"/>
<text text-anchor="middle" x="622.5" y="-415.8" font-family="Times New Roman,serif" font-size="14.00">3</text>
</g>
<!-- G&#45;&gt;H -->
<g id="edge72" class="edge">
<title>G&#45;&gt;H</title>
<path fill="none" stroke="black" d="M599.58,-362.69C610.12,-367.89 624.27,-374.87 636.33,-380.82"/>
<polygon fill="black" stroke="black" points="645.44,-385.32 634.48,-384.93 640.96,-383.11 636.47,-380.9 636.47,-380.9 636.47,-380.9 640.96,-383.11 638.47,-376.86 645.44,-385.32 645.44,-385.32"/>
<text text-anchor="middle" x="622.5" y="-379.8" font-family="Times New Roman,serif" font-size="14.00">4</text>
</g>
<!-- G&#45;&gt;H -->
<g id="edge73" class="edge">
<title>G&#45;&gt;H</title>
<path fill="none" stroke="black" d="M601.01,-351.34C608.93,-350.43 618.27,-350.55 626,-354 633.71,-357.44 640.43,-363.51 645.87,-369.86"/>
<polygon fill="black" stroke="black" points="652.04,-377.86 642.37,-372.69 648.98,-373.9 645.93,-369.94 645.93,-369.94 645.93,-369.94 648.98,-373.9 649.49,-367.19 652.04,-377.86 652.04,-377.86"/>
<text text-anchor="middle" x="622.5" y="-357.8" font-family="Times New Roman,serif" font-size="14.00">5</text>
</g>
<!-- G&#45;&gt;H -->
<g id="edge74" class="edge">
<title>G&#45;&gt;H</title>
<path fill="none" stroke="black" d="M595.9,-342.01C604.38,-334.38 616.01,-327.26 626,-333 638.54,-340.2 647.01,-353.83 652.48,-366.27"/>
<polygon fill="black" stroke="black" points="656.23,-375.86 648.4,-368.19 654.41,-371.2 652.59,-366.55 652.59,-366.55 652.59,-366.55 654.41,-371.2 656.77,-364.91 656.23,-375.86 656.23,-375.86"/>
<text text-anchor="middle" x="622.5" y="-336.8" font-family="Times New Roman,serif" font-size="14.00">6</text>
</g>
<!-- G&#45;&gt;H -->
<g id="edge75" class="edge">
<title>G&#45;&gt;H</title>
<path fill="none" stroke="black" d="M590.83,-338.69C598.48,-322.89 611.7,-302.6 626,-312 643.85,-323.73 652.64,-346.71 656.94,-365.2"/>
<polygon fill="black" stroke="black" points="658.94,-375.18 652.56,-366.27 657.96,-370.28 656.97,-365.38 656.97,-365.38 656.97,-365.38 657.96,-370.28 661.39,-364.49 658.94,-375.18 658.94,-375.18"/>
<text text-anchor="middle" x="622.5" y="-315.8" font-family="Times New Roman,serif" font-size="14.00">7</text>
</g>
<!-- G&#45;&gt;H -->
<g id="edge76" class="edge">
<title>G&#45;&gt;H</title>
<path fill="none" stroke="black" d="M587.86,-337.36C593.82,-313.97 606.64,-277.18 626,-291 649.36,-307.68 657.29,-340.96 659.9,-364.98"/>
<polygon fill="black" stroke="black" points="660.74,-374.95 655.41,-365.37 660.32,-369.97 659.9,-364.99 659.9,-364.99 659.9,-364.99 660.32,-369.97 664.38,-364.61 660.74,-374.95 660.74,-374.95"/>
<text text-anchor="middle" x="622.5" y="-294.8" font-family="Times New Roman,serif" font-size="14.00">8</text>
</g>
<!-- G&#45;&gt;H -->
<g id="edge77" class="edge">
<title>G&#45;&gt;H</title>
<path fill="none" stroke="black" d="M585.96,-337.21C590,-307.1 601.04,-251.15 626,-270 641.12,-281.42 651.64,-332.3 656.97,-364.94"/>
<polygon fill="black" stroke="black" points="658.58,-375.22 652.59,-366.04 657.8,-370.28 657.03,-365.34 657.03,-365.34 657.03,-365.34 657.8,-370.28 661.48,-364.65 658.58,-375.22 658.58,-375.22"/>
<text text-anchor="middle" x="622.5" y="-273.8" font-family="Times New Roman,serif" font-size="14.00">9</text>
</g>
<!-- G&#45;&gt;L -->
<g id="edge78" class="edge">
<title>G&#45;&gt;L</title>
<path fill="none" stroke="black" d="M585.06,-336.79C587.41,-315.06 594.94,-279.59 619,-263 682.51,-219.21 737.78,-222.13 792,-277 823.12,-308.49 827.03,-444.03 827.21,-503.66"/>
<polygon fill="black" stroke="black" points="827.21,-513.87 822.71,-503.87 827.21,-508.87 827.21,-503.87 827.21,-503.87 827.21,-503.87 827.21,-508.87 831.71,-503.87 827.21,-513.87 827.21,-513.87"/>
<text text-anchor="middle" x="701.5" y="-236.8" font-family="Times New Roman,serif" font-size="14.00">&#45;</text>
</g>
<!-- E -->
<g id="node4" class="node">
<title>E</title>
<ellipse fill="none" stroke="black" cx="425" cy="-745" rx="18" ry="18"/>
<text text-anchor="middle" x="425" y="-741.3" font-family="Times New Roman,serif" font-size="14.00">E</text>
</g>
<!-- E&#45;&gt;L -->
<g id="edge46" class="edge">
<title>E&#45;&gt;L</title>
<path fill="none" stroke="black" d="M427.48,-762.94C431.18,-803.97 441.88,-903.18 461,-930 473.48,-947.51 481.5,-954 503,-954 503,-954 503,-954 746,-954 769.06,-954 779.19,-949.18 792,-930 812.46,-899.37 823.06,-645.56 826.08,-560.02"/>
<polygon fill="black" stroke="black" points="826.43,-550 830.58,-560.15 826.25,-554.99 826.08,-559.99 826.08,-559.99 826.08,-559.99 826.25,-554.99 821.58,-559.84 826.43,-550 826.43,-550"/>
<text text-anchor="middle" x="622.5" y="-957.8" font-family="Times New Roman,serif" font-size="14.00">0</text>
</g>
<!-- E&#45;&gt;L -->
<g id="edge47" class="edge">
<title>E&#45;&gt;L</title>
<path fill="none" stroke="black" d="M426.01,-762.98C427.08,-806.88 436.42,-916 503,-916 503,-916 503,-916 746,-916 769.06,-916 779.11,-911.12 792,-892 828.4,-838.04 828.8,-635.4 827.63,-560.26"/>
<polygon fill="black" stroke="black" points="827.45,-550.14 832.13,-560.06 827.54,-555.14 827.63,-560.13 827.63,-560.13 827.63,-560.13 827.54,-555.14 823.13,-560.21 827.45,-550.14 827.45,-550.14"/>
<text text-anchor="middle" x="622.5" y="-919.8" font-family="Times New Roman,serif" font-size="14.00">1</text>
</g>
<!-- E&#45;&gt;L -->
<g id="edge48" class="edge">
<title>E&#45;&gt;L</title>
<path fill="none" stroke="black" d="M428.01,-762.94C433.17,-799.24 450.44,-878 503,-878 503,-878 503,-878 746,-878 769.06,-878 779,-873.04 792,-854 824.36,-806.61 827.37,-630.14 827.26,-560.51"/>
<polygon fill="black" stroke="black" points="827.22,-550.29 831.76,-560.27 827.24,-555.29 827.26,-560.29 827.26,-560.29 827.26,-560.29 827.24,-555.29 822.76,-560.31 827.22,-550.29 827.22,-550.29"/>
<text text-anchor="middle" x="622.5" y="-881.8" font-family="Times New Roman,serif" font-size="14.00">2</text>
</g>
<!-- E&#45;&gt;L -->
<g id="edge49" class="edge">
<title>E&#45;&gt;L</title>
<path fill="none" stroke="black" d="M431.11,-761.98C440.51,-789.31 463.3,-840 503,-840 503,-840 503,-840 746,-840 769.06,-840 778.86,-834.95 792,-816 820.43,-775 825.79,-623.48 826.79,-560.13"/>
<polygon fill="black" stroke="black" points="826.92,-550.06 831.29,-560.11 826.85,-555.06 826.79,-560.06 826.79,-560.06 826.79,-560.06 826.85,-555.06 822.29,-560 826.92,-550.06 826.92,-550.06"/>
<text text-anchor="middle" x="622.5" y="-843.8" font-family="Times New Roman,serif" font-size="14.00">3</text>
</g>
<!-- E&#45;&gt;L -->
<g id="edge50" class="edge">
<title>E&#45;&gt;L</title>
<path fill="none" stroke="black" d="M436.19,-759.38C449.47,-776.27 474.39,-802 503,-802 503,-802 503,-802 746,-802 769.06,-802 778.68,-796.83 792,-778 816.46,-743.42 823.99,-617.18 826.17,-560.22"/>
<polygon fill="black" stroke="black" points="826.53,-550.11 830.67,-560.26 826.35,-555.11 826.17,-560.1 826.17,-560.1 826.17,-560.1 826.35,-555.11 821.67,-559.94 826.53,-550.11 826.53,-550.11"/>
<text text-anchor="middle" x="622.5" y="-805.8" font-family="Times New Roman,serif" font-size="14.00">4</text>
</g>
<!-- E&#45;&gt;L -->
<g id="edge51" class="edge">
<title>E&#45;&gt;L</title>
<path fill="none" stroke="black" d="M441.94,-751.33C457.32,-756.85 481.38,-764 503,-764 503,-764 503,-764 746,-764 769.06,-764 778.45,-758.66 792,-740 812.5,-711.78 821.87,-610.36 825.33,-560.32"/>
<polygon fill="black" stroke="black" points="825.99,-550.19 829.83,-560.46 825.66,-555.18 825.34,-560.17 825.34,-560.17 825.34,-560.17 825.66,-555.18 820.85,-559.87 825.99,-550.19 825.99,-550.19"/>
<text text-anchor="middle" x="622.5" y="-767.8" font-family="Times New Roman,serif" font-size="14.00">5</text>
</g>
<!-- E&#45;&gt;L -->
<g id="edge52" class="edge">
<title>E&#45;&gt;L</title>
<path fill="none" stroke="black" d="M441.94,-738.67C457.32,-733.15 481.38,-726 503,-726 503,-726 503,-726 746,-726 816.85,-726 826.83,-614.44 827.51,-560.52"/>
<polygon fill="black" stroke="black" points="827.53,-550.25 832.01,-560.26 827.52,-555.25 827.51,-560.25 827.51,-560.25 827.51,-560.25 827.52,-555.25 823.01,-560.24 827.53,-550.25 827.53,-550.25"/>
<text text-anchor="middle" x="622.5" y="-729.8" font-family="Times New Roman,serif" font-size="14.00">6</text>
</g>
<!-- E&#45;&gt;L -->
<g id="edge53" class="edge">
<title>E&#45;&gt;L</title>
<path fill="none" stroke="black" d="M436.19,-730.62C449.47,-713.73 474.39,-688 503,-688 503,-688 503,-688 746,-688 769.06,-688 777.6,-682.01 792,-664 815.9,-634.12 823.57,-589.45 825.98,-560.52"/>
<polygon fill="black" stroke="black" points="826.67,-550.26 830.49,-560.54 826.34,-555.25 826,-560.24 826,-560.24 826,-560.24 826.34,-555.25 821.51,-559.94 826.67,-550.26 826.67,-550.26"/>
<text text-anchor="middle" x="622.5" y="-691.8" font-family="Times New Roman,serif" font-size="14.00">7</text>
</g>
<!-- E&#45;&gt;L -->
<g id="edge54" class="edge">
<title>E&#45;&gt;L</title>
<path fill="none" stroke="black" d="M431.11,-728.02C440.51,-700.69 463.3,-650 503,-650 503,-650 503,-650 746,-650 767.37,-650 776.67,-650.89 792,-636 812.62,-615.97 821.09,-583.42 824.57,-560.07"/>
<polygon fill="black" stroke="black" points="825.85,-550.07 829.05,-560.56 825.22,-555.03 824.58,-559.99 824.58,-559.99 824.58,-559.99 825.22,-555.03 820.12,-559.42 825.85,-550.07 825.85,-550.07"/>
<text text-anchor="middle" x="622.5" y="-653.8" font-family="Times New Roman,serif" font-size="14.00">8</text>
</g>
<!-- E&#45;&gt;L -->
<g id="edge55" class="edge">
<title>E&#45;&gt;L</title>
<path fill="none" stroke="black" d="M428.01,-727.06C433.17,-690.76 450.44,-612 503,-612 503,-612 503,-612 702.5,-612 744.18,-612 760.47,-611.26 792,-584 800.64,-576.53 808.08,-566.44 813.86,-557.13"/>
<polygon fill="black" stroke="black" points="819.05,-548.22 817.9,-559.12 816.53,-552.54 814.02,-556.86 814.02,-556.86 814.02,-556.86 816.53,-552.54 810.13,-554.59 819.05,-548.22 819.05,-548.22"/>
<text text-anchor="middle" x="622.5" y="-615.8" font-family="Times New Roman,serif" font-size="14.00">9</text>
</g>
<!-- F -->
<g id="node7" class="node">
<title>F</title>
<ellipse fill="none" stroke="black" cx="504" cy="-355" rx="18" ry="18"/>
<text text-anchor="middle" x="504" y="-351.3" font-family="Times New Roman,serif" font-size="14.00">F</text>
</g>
<!-- E&#45;&gt;F -->
<g id="edge56" class="edge">
<title>E&#45;&gt;F</title>
<path fill="none" stroke="black" d="M429.46,-727.48C441.65,-665.75 482.67,-457.95 497.55,-382.59"/>
<polygon fill="black" stroke="black" points="499.55,-372.47 502.03,-383.15 498.58,-377.37 497.61,-382.28 497.61,-382.28 497.61,-382.28 498.58,-377.37 493.2,-381.41 499.55,-372.47 499.55,-372.47"/>
<text text-anchor="middle" x="464.5" y="-564.8" font-family="Times New Roman,serif" font-size="14.00">&#45;</text>
</g>
<!-- H&#45;&gt;L -->
<g id="edge89" class="edge">
<title>H&#45;&gt;L</title>
<path fill="none" stroke="black" d="M664.84,-410.98C668.88,-446.92 679.64,-525.84 698,-545 727.83,-576.14 752.4,-586.05 792,-569 799.26,-565.87 805.71,-560.42 811.04,-554.65"/>
<polygon fill="black" stroke="black" points="817.58,-546.76 814.66,-557.33 814.39,-550.61 811.2,-554.46 811.2,-554.46 811.2,-554.46 814.39,-550.61 807.74,-551.59 817.58,-546.76 817.58,-546.76"/>
<text text-anchor="middle" x="745" y="-580.8" font-family="Times New Roman,serif" font-size="14.00">&#45;</text>
</g>
<!-- I -->
<g id="node11" class="node">
<title>I</title>
<ellipse fill="none" stroke="black" cx="745" cy="-380" rx="18" ry="18"/>
<ellipse fill="none" stroke="black" cx="745" cy="-380" rx="22" ry="22"/>
<text text-anchor="middle" x="745" y="-376.3" font-family="Times New Roman,serif" font-size="14.00">I</text>
</g>
<!-- H&#45;&gt;I -->
<g id="edge79" class="edge">
<title>H&#45;&gt;I</title>
<path fill="none" stroke="black" d="M662.74,-411.17C662.75,-453.36 666.74,-552.23 705,-523 722.57,-509.58 734.13,-449.74 739.82,-411.85"/>
<polygon fill="black" stroke="black" points="741.28,-401.8 744.3,-412.34 740.56,-406.75 739.85,-411.7 739.85,-411.7 739.85,-411.7 740.56,-406.75 735.39,-411.05 741.28,-401.8 741.28,-401.8"/>
<text text-anchor="middle" x="701.5" y="-529.8" font-family="Times New Roman,serif" font-size="14.00">0</text>
</g>
<!-- H&#45;&gt;I -->
<g id="edge80" class="edge">
<title>H&#45;&gt;I</title>
<path fill="none" stroke="black" d="M664.37,-410.98C667.54,-442.87 677.32,-504.25 705,-485 728.47,-468.68 737.85,-436.48 741.57,-412.02"/>
<polygon fill="black" stroke="black" points="742.85,-402.08 746.04,-412.57 742.21,-407.04 741.58,-412 741.58,-412 741.58,-412 742.21,-407.04 737.11,-411.43 742.85,-402.08 742.85,-402.08"/>
<text text-anchor="middle" x="701.5" y="-491.8" font-family="Times New Roman,serif" font-size="14.00">1</text>
</g>
<!-- H&#45;&gt;I -->
<g id="edge81" class="edge">
<title>H&#45;&gt;I</title>
<path fill="none" stroke="black" d="M667.99,-410.25C674.57,-429.63 687.39,-457.12 705,-447 718.71,-439.12 728.05,-424.36 734.14,-410.7"/>
<polygon fill="black" stroke="black" points="738.02,-401.05 738.46,-412.01 736.16,-405.69 734.29,-410.33 734.29,-410.33 734.29,-410.33 736.16,-405.69 730.11,-408.65 738.02,-401.05 738.02,-401.05"/>
<text text-anchor="middle" x="701.5" y="-452.8" font-family="Times New Roman,serif" font-size="14.00">2</text>
</g>
<!-- H&#45;&gt;I -->
<g id="edge82" class="edge">
<title>H&#45;&gt;I</title>
<path fill="none" stroke="black" d="M676.89,-403.35C685.02,-408.14 695.52,-412.14 705,-409 710.41,-407.21 715.67,-404.35 720.5,-401.1"/>
<polygon fill="black" stroke="black" points="728.64,-395 723.34,-404.6 724.64,-398 720.64,-401 720.64,-401 720.64,-401 724.64,-398 717.94,-397.4 728.64,-395 728.64,-395"/>
<text text-anchor="middle" x="701.5" y="-414.8" font-family="Times New Roman,serif" font-size="14.00">3</text>
</g>
<!-- H&#45;&gt;I -->
<g id="edge83" class="edge">
<title>H&#45;&gt;I</title>
<path fill="none" stroke="black" d="M680.18,-390.24C689.78,-388.7 702.03,-386.74 713.23,-384.94"/>
<polygon fill="black" stroke="black" points="723.11,-383.35 713.95,-389.38 718.17,-384.15 713.23,-384.94 713.23,-384.94 713.23,-384.94 718.17,-384.15 712.52,-380.49 723.11,-383.35 723.11,-383.35"/>
<text text-anchor="middle" x="701.5" y="-391.8" font-family="Times New Roman,serif" font-size="14.00">4</text>
</g>
<!-- H&#45;&gt;I -->
<g id="edge84" class="edge">
<title>H&#45;&gt;I</title>
<path fill="none" stroke="black" d="M675.55,-381.12C681.79,-376.02 689.75,-370.64 698,-368 703.5,-366.24 709.43,-366.34 715.15,-367.41"/>
<polygon fill="black" stroke="black" points="725.07,-370.2 714.22,-371.82 720.25,-368.85 715.44,-367.49 715.44,-367.49 715.44,-367.49 720.25,-368.85 716.66,-363.16 725.07,-370.2 725.07,-370.2"/>
<text text-anchor="middle" x="701.5" y="-371.8" font-family="Times New Roman,serif" font-size="14.00">5</text>
</g>
<!-- H&#45;&gt;I -->
<g id="edge85" class="edge">
<title>H&#45;&gt;I</title>
<path fill="none" stroke="black" d="M670.63,-376.96C676.52,-366.61 685.73,-354 698,-348 707.05,-343.58 716.3,-347.96 724.11,-354.75"/>
<polygon fill="black" stroke="black" points="731.38,-362.11 721.15,-358.16 727.86,-358.55 724.35,-355 724.35,-355 724.35,-355 727.86,-358.55 727.55,-351.84 731.38,-362.11 731.38,-362.11"/>
<text text-anchor="middle" x="701.5" y="-351.8" font-family="Times New Roman,serif" font-size="14.00">6</text>
</g>
<!-- H&#45;&gt;I -->
<g id="edge86" class="edge">
<title>H&#45;&gt;I</title>
<path fill="none" stroke="black" d="M666.99,-375.69C671.59,-360.15 680.83,-338.25 698,-328 711.84,-319.73 723.77,-334.3 732.02,-350.1"/>
<polygon fill="black" stroke="black" points="736.43,-359.37 728.07,-352.28 734.28,-354.86 732.14,-350.34 732.14,-350.34 732.14,-350.34 734.28,-354.86 736.2,-348.41 736.43,-359.37 736.43,-359.37"/>
<text text-anchor="middle" x="701.5" y="-331.8" font-family="Times New Roman,serif" font-size="14.00">7</text>
</g>
<!-- H&#45;&gt;I -->
<g id="edge87" class="edge">
<title>H&#45;&gt;I</title>
<path fill="none" stroke="black" d="M664.6,-374.86C667.48,-354.43 675.53,-322.12 698,-307 717.2,-294.08 729.98,-323.34 737.1,-348.58"/>
<polygon fill="black" stroke="black" points="739.63,-358.31 732.75,-349.76 738.37,-353.47 737.11,-348.63 737.11,-348.63 737.11,-348.63 738.37,-353.47 741.46,-347.49 739.63,-358.31 739.63,-358.31"/>
<text text-anchor="middle" x="701.5" y="-310.8" font-family="Times New Roman,serif" font-size="14.00">8</text>
</g>
<!-- H&#45;&gt;I -->
<g id="edge88" class="edge">
<title>H&#45;&gt;I</title>
<path fill="none" stroke="black" d="M662.92,-374.94C663.92,-350.17 669.83,-306.42 698,-286 722.73,-268.07 734.82,-314.22 740.2,-348.03"/>
<polygon fill="black" stroke="black" points="741.66,-358.04 735.76,-348.79 740.94,-353.09 740.22,-348.14 740.22,-348.14 740.22,-348.14 740.94,-353.09 744.67,-347.49 741.66,-358.04 741.66,-358.04"/>
<text text-anchor="middle" x="701.5" y="-289.8" font-family="Times New Roman,serif" font-size="14.00">9</text>
</g>
<!-- L&#45;&gt;L -->
<g id="edge101" class="edge">
<title>L&#45;&gt;L</title>
<path fill="none" stroke="black" d="M826.55,-550.15C826.33,-559.54 826.81,-568 828,-568 828.72,-568 829.19,-564.86 829.39,-560.28"/>
<polygon fill="black" stroke="black" points="829.45,-550.15 833.89,-560.18 829.42,-555.15 829.39,-560.15 829.39,-560.15 829.39,-560.15 829.42,-555.15 824.89,-560.13 829.45,-550.15 829.45,-550.15"/>
<text text-anchor="middle" x="828" y="-571.8" font-family="Times New Roman,serif" font-size="14.00">0</text>
</g>
<!-- L&#45;&gt;L -->
<g id="edge102" class="edge">
<title>L&#45;&gt;L</title>
<path fill="none" stroke="black" d="M825.59,-549.98C824.31,-567.2 825.11,-586 828,-586 830.33,-586 831.3,-573.83 830.92,-560.1"/>
<polygon fill="black" stroke="black" points="830.41,-549.98 835.41,-559.74 830.66,-554.97 830.91,-559.97 830.91,-559.97 830.91,-559.97 830.66,-554.97 826.42,-560.19 830.41,-549.98 830.41,-549.98"/>
<text text-anchor="middle" x="828" y="-589.8" font-family="Times New Roman,serif" font-size="14.00">1</text>
</g>
<!-- L&#45;&gt;L -->
<g id="edge103" class="edge">
<title>L&#45;&gt;L</title>
<path fill="none" stroke="black" d="M824.96,-550.08C822.28,-574.41 823.29,-604 828,-604 832.07,-604 833.38,-581.95 831.93,-560.26"/>
<polygon fill="black" stroke="black" points="831.04,-550.08 836.39,-559.65 831.47,-555.06 831.91,-560.04 831.91,-560.04 831.91,-560.04 831.47,-555.06 827.43,-560.43 831.04,-550.08 831.04,-550.08"/>
<text text-anchor="middle" x="828" y="-607.8" font-family="Times New Roman,serif" font-size="14.00">2</text>
</g>
<!-- L&#45;&gt;L -->
<g id="edge104" class="edge">
<title>L&#45;&gt;L</title>
<path fill="none" stroke="black" d="M824.52,-550.11C820.25,-581.24 821.41,-622 828,-622 833.9,-622 835.45,-589.38 832.65,-560.22"/>
<polygon fill="black" stroke="black" points="831.48,-550.11 837.1,-559.53 832.05,-555.08 832.63,-560.05 832.63,-560.05 832.63,-560.05 832.05,-555.08 828.16,-560.56 831.48,-550.11 831.48,-550.11"/>
<text text-anchor="middle" x="828" y="-625.8" font-family="Times New Roman,serif" font-size="14.00">3</text>
</g>
<!-- L&#45;&gt;L -->
<g id="edge105" class="edge">
<title>L&#45;&gt;L</title>
<path fill="none" stroke="black" d="M824.25,-549.8C818.21,-587.55 819.46,-640 828,-640 835.8,-640 837.52,-596.18 833.15,-559.81"/>
<polygon fill="black" stroke="black" points="831.75,-549.8 837.59,-559.08 832.44,-554.75 833.13,-559.7 833.13,-559.7 833.13,-559.7 832.44,-554.75 828.67,-560.32 831.75,-549.8 831.75,-549.8"/>
<text text-anchor="middle" x="828" y="-643.8" font-family="Times New Roman,serif" font-size="14.00">4</text>
</g>
<!-- L&#45;&gt;L -->
<g id="edge106" class="edge">
<title>L&#45;&gt;L</title>
<path fill="none" stroke="black" d="M824.01,-549.77C816.19,-593.97 817.52,-658 828,-658 837.7,-658 839.56,-603.13 833.58,-559.9"/>
<polygon fill="black" stroke="black" points="831.99,-549.77 837.98,-558.95 832.76,-554.71 833.54,-559.65 833.54,-559.65 833.54,-559.65 832.76,-554.71 829.09,-560.35 831.99,-549.77 831.99,-549.77"/>
<text text-anchor="middle" x="828" y="-661.8" font-family="Times New Roman,serif" font-size="14.00">5</text>
</g>
<!-- L&#45;&gt;L -->
<g id="edge107" class="edge">
<title>L&#45;&gt;L</title>
<path fill="none" stroke="black" d="M823.84,-549.62C814.17,-600.19 815.56,-676 828,-676 839.64,-676 841.6,-609.64 833.89,-559.68"/>
<polygon fill="black" stroke="black" points="832.16,-549.62 838.29,-558.71 833,-554.54 833.85,-559.47 833.85,-559.47 833.85,-559.47 833,-554.54 829.42,-560.24 832.16,-549.62 832.16,-549.62"/>
<text text-anchor="middle" x="828" y="-679.8" font-family="Times New Roman,serif" font-size="14.00">6</text>
</g>
<!-- L&#45;&gt;L -->
<g id="edge108" class="edge">
<title>L&#45;&gt;L</title>
<path fill="none" stroke="black" d="M823.7,-549.58C812.16,-606.44 813.59,-694 828,-694 841.59,-694 843.64,-616.08 834.14,-559.52"/>
<polygon fill="black" stroke="black" points="832.3,-549.58 838.55,-558.6 833.21,-554.5 834.12,-559.42 834.12,-559.42 834.12,-559.42 833.21,-554.5 829.7,-560.24 832.3,-549.58 832.3,-549.58"/>
<text text-anchor="middle" x="828" y="-697.8" font-family="Times New Roman,serif" font-size="14.00">7</text>
</g>
<!-- L&#45;&gt;L -->
<g id="edge109" class="edge">
<title>L&#45;&gt;L</title>
<path fill="none" stroke="black" d="M823.58,-549.49C810.15,-612.59 811.62,-712 828,-712 843.55,-712 845.67,-622.43 834.35,-559.37"/>
<polygon fill="black" stroke="black" points="832.42,-549.49 838.75,-558.44 833.38,-554.4 834.34,-559.31 834.34,-559.31 834.34,-559.31 833.38,-554.4 829.92,-560.17 832.42,-549.49 832.42,-549.49"/>
<text text-anchor="middle" x="828" y="-715.8" font-family="Times New Roman,serif" font-size="14.00">8</text>
</g>
<!-- L&#45;&gt;L -->
<g id="edge110" class="edge">
<title>L&#45;&gt;L</title>
<path fill="none" stroke="black" d="M823.48,-549.47C808.13,-618.77 809.64,-730 828,-730 845.5,-730 847.69,-628.95 834.57,-559.47"/>
<polygon fill="black" stroke="black" points="832.52,-549.47 838.93,-558.36 833.52,-554.36 834.52,-559.26 834.52,-559.26 834.52,-559.26 833.52,-554.36 830.11,-560.16 832.52,-549.47 832.52,-549.47"/>
<text text-anchor="middle" x="828" y="-733.8" font-family="Times New Roman,serif" font-size="14.00">9</text>
</g>
<!-- L&#45;&gt;L -->
<g id="edge111" class="edge">
<title>L&#45;&gt;L</title>
<path fill="none" stroke="black" d="M823.36,-549.61C806.13,-625.1 807.68,-748 828,-748 847.45,-748 849.7,-635.44 834.76,-559.59"/>
<polygon fill="black" stroke="black" points="832.64,-549.61 839.12,-558.46 833.68,-554.5 834.72,-559.39 834.72,-559.39 834.72,-559.39 833.68,-554.5 830.32,-560.33 832.64,-549.61 832.64,-549.61"/>
<text text-anchor="middle" x="828" y="-751.8" font-family="Times New Roman,serif" font-size="14.00">&#45;</text>
</g>
<!-- F&#45;&gt;G -->
<g id="edge57" class="edge">
<title>F&#45;&gt;G</title>
<path fill="none" stroke="black" d="M506.5,-373.05C509.92,-409.08 519.59,-487.83 540,-504 559.98,-519.83 573.41,-430.42 579.02,-383.02"/>
<polygon fill="black" stroke="black" points="580.16,-373.05 583.5,-383.5 579.6,-378.02 579.03,-382.99 579.03,-382.99 579.03,-382.99 579.6,-378.02 574.56,-382.48 580.16,-373.05 580.16,-373.05"/>
<text text-anchor="middle" x="543.5" y="-508.8" font-family="Times New Roman,serif" font-size="14.00">0</text>
</g>
<!-- F&#45;&gt;G -->
<g id="edge58" class="edge">
<title>F&#45;&gt;G</title>
<path fill="none" stroke="black" d="M505.42,-373.23C506.97,-410.53 514.1,-490.12 547,-466 572.64,-447.2 579.98,-409.59 581.84,-383.38"/>
<polygon fill="black" stroke="black" points="582.32,-373.28 586.34,-383.49 582.08,-378.27 581.84,-383.27 581.84,-383.27 581.84,-383.27 582.08,-378.27 577.35,-383.05 582.32,-373.28 582.32,-373.28"/>
<text text-anchor="middle" x="543.5" y="-471.8" font-family="Times New Roman,serif" font-size="14.00">1</text>
</g>
<!-- F&#45;&gt;G -->
<g id="edge59" class="edge">
<title>F&#45;&gt;G</title>
<path fill="none" stroke="black" d="M507.97,-372.72C511.94,-390.18 520.85,-415.94 540,-428 559.9,-440.53 571.37,-408.5 577.15,-382.96"/>
<polygon fill="black" stroke="black" points="579.23,-372.9 581.62,-383.6 578.22,-377.8 577.21,-382.69 577.21,-382.69 577.21,-382.69 578.22,-377.8 572.8,-381.79 579.23,-372.9 579.23,-372.9"/>
<text text-anchor="middle" x="543.5" y="-433.8" font-family="Times New Roman,serif" font-size="14.00">2</text>
</g>
<!-- F&#45;&gt;G -->
<g id="edge60" class="edge">
<title>F&#45;&gt;G</title>
<path fill="none" stroke="black" d="M513.56,-370.37C521.36,-382.15 533.67,-395.52 547,-390 553.83,-387.17 560.02,-382.29 565.23,-377.06"/>
<polygon fill="black" stroke="black" points="572.12,-369.34 568.82,-379.8 568.79,-373.07 565.46,-376.8 565.46,-376.8 565.46,-376.8 568.79,-373.07 562.1,-373.8 572.12,-369.34 572.12,-369.34"/>
<text text-anchor="middle" x="543.5" y="-395.8" font-family="Times New Roman,serif" font-size="14.00">3</text>
</g>
<!-- F&#45;&gt;G -->
<g id="edge61" class="edge">
<title>F&#45;&gt;G</title>
<path fill="none" stroke="black" d="M522.09,-355C531.66,-355 543.82,-355 554.68,-355"/>
<polygon fill="black" stroke="black" points="564.96,-355 554.96,-359.5 559.96,-355 554.96,-355 554.96,-355 554.96,-355 559.96,-355 554.96,-350.5 564.96,-355 564.96,-355"/>
<text text-anchor="middle" x="543.5" y="-358.8" font-family="Times New Roman,serif" font-size="14.00">4</text>
</g>
<!-- F&#45;&gt;G -->
<g id="edge62" class="edge">
<title>F&#45;&gt;G</title>
<path fill="none" stroke="black" d="M518.18,-343.86C526.24,-338.38 536.92,-333.44 547,-336 550.96,-337.01 554.95,-338.56 558.76,-340.35"/>
<polygon fill="black" stroke="black" points="567.69,-345.13 556.75,-344.38 563.28,-342.77 558.87,-340.41 558.87,-340.41 558.87,-340.41 563.28,-342.77 561,-336.45 567.69,-345.13 567.69,-345.13"/>
<text text-anchor="middle" x="543.5" y="-339.8" font-family="Times New Roman,serif" font-size="14.00">5</text>
</g>
<!-- F&#45;&gt;G -->
<g id="edge63" class="edge">
<title>F&#45;&gt;G</title>
<path fill="none" stroke="black" d="M514.33,-339.85C520.46,-331.41 529.32,-321.68 540,-317 550.91,-312.22 560.89,-320.46 568.39,-330.48"/>
<polygon fill="black" stroke="black" points="574.06,-339.06 564.79,-333.21 571.31,-334.89 568.55,-330.72 568.55,-330.72 568.55,-330.72 571.31,-334.89 572.3,-328.24 574.06,-339.06 574.06,-339.06"/>
<text text-anchor="middle" x="543.5" y="-320.8" font-family="Times New Roman,serif" font-size="14.00">6</text>
</g>
<!-- F&#45;&gt;G -->
<g id="edge64" class="edge">
<title>F&#45;&gt;G</title>
<path fill="none" stroke="black" d="M510.13,-337.86C515.26,-324.09 524.64,-305.67 540,-297 556.04,-287.94 567.58,-308.8 574.46,-327.98"/>
<polygon fill="black" stroke="black" points="577.63,-337.69 570.25,-329.58 576.08,-332.93 574.53,-328.18 574.53,-328.18 574.53,-328.18 576.08,-332.93 578.8,-326.78 577.63,-337.69 577.63,-337.69"/>
<text text-anchor="middle" x="543.5" y="-300.8" font-family="Times New Roman,serif" font-size="14.00">7</text>
</g>
<!-- F&#45;&gt;G -->
<g id="edge65" class="edge">
<title>F&#45;&gt;G</title>
<path fill="none" stroke="black" d="M507.26,-337.27C510.71,-318.42 519.25,-289.5 540,-276 561.47,-262.03 572.71,-298.85 577.99,-326.82"/>
<polygon fill="black" stroke="black" points="579.73,-336.98 573.6,-327.88 578.88,-332.05 578.04,-327.12 578.04,-327.12 578.04,-327.12 578.88,-332.05 582.48,-326.36 579.73,-336.98 579.73,-336.98"/>
<text text-anchor="middle" x="543.5" y="-279.8" font-family="Times New Roman,serif" font-size="14.00">8</text>
</g>
<!-- F&#45;&gt;G -->
<g id="edge66" class="edge">
<title>F&#45;&gt;G</title>
<path fill="none" stroke="black" d="M505.92,-337.05C508.36,-302.9 517.05,-233.75 547,-255 569.77,-271.15 577.84,-303.3 580.64,-326.8"/>
<polygon fill="black" stroke="black" points="581.59,-336.9 576.17,-327.36 581.12,-331.92 580.65,-326.94 580.65,-326.94 580.65,-326.94 581.12,-331.92 585.13,-326.52 581.59,-336.9 581.59,-336.9"/>
<text text-anchor="middle" x="543.5" y="-258.8" font-family="Times New Roman,serif" font-size="14.00">9</text>
</g>
<!-- F&#45;&gt;L -->
<g id="edge67" class="edge">
<title>F&#45;&gt;L</title>
<path fill="none" stroke="black" d="M507.12,-337.11C513.97,-283.36 537.71,-127 582,-127 582,-127 582,-127 746,-127 822.91,-127 827.8,-411.41 827.37,-503.56"/>
<polygon fill="black" stroke="black" points="827.29,-513.81 822.87,-503.78 827.33,-508.81 827.37,-503.81 827.37,-503.81 827.37,-503.81 827.33,-508.81 831.87,-503.84 827.29,-513.81 827.29,-513.81"/>
<text text-anchor="middle" x="662" y="-130.8" font-family="Times New Roman,serif" font-size="14.00">&#45;</text>
</g>
<!-- A&#45;&gt;B -->
<g id="edge3" class="edge">
<title>A&#45;&gt;B</title>
<path fill="none" stroke="black" d="M110.97,-610.9C113.52,-650.24 121.88,-742.2 145,-761 168.72,-780.29 179.61,-730.76 184.14,-697.11"/>
<polygon fill="black" stroke="black" points="185.4,-686.86 188.65,-697.33 184.79,-691.82 184.18,-696.78 184.18,-696.78 184.18,-696.78 184.79,-691.82 179.71,-696.24 185.4,-686.86 185.4,-686.86"/>
<text text-anchor="middle" x="148.5" y="-767.8" font-family="Times New Roman,serif" font-size="14.00">1</text>
</g>
<!-- A&#45;&gt;B -->
<g id="edge4" class="edge">
<title>A&#45;&gt;B</title>
<path fill="none" stroke="black" d="M112.13,-610.75C116.41,-643.05 127.19,-709.35 145,-723 158.97,-733.7 170.84,-713.93 178.36,-695.37"/>
<polygon fill="black" stroke="black" points="181.88,-685.94 182.59,-696.88 180.13,-690.62 178.38,-695.31 178.38,-695.31 178.38,-695.31 180.13,-690.62 174.16,-693.73 181.88,-685.94 181.88,-685.94"/>
<text text-anchor="middle" x="148.5" y="-728.8" font-family="Times New Roman,serif" font-size="14.00">2</text>
</g>
<!-- A&#45;&gt;B -->
<g id="edge5" class="edge">
<title>A&#45;&gt;B</title>
<path fill="none" stroke="black" d="M111.06,-611.21C113.41,-632.94 120.94,-668.41 145,-685 151.01,-689.14 158.23,-688.12 164.98,-685.16"/>
<polygon fill="black" stroke="black" points="173.73,-680.22 167.23,-689.06 169.37,-682.68 165.02,-685.14 165.02,-685.14 165.02,-685.14 169.37,-682.68 162.8,-681.22 173.73,-680.22 173.73,-680.22"/>
<text text-anchor="middle" x="148.5" y="-690.8" font-family="Times New Roman,serif" font-size="14.00">3</text>
</g>
<!-- A&#45;&gt;B -->
<g id="edge6" class="edge">
<title>A&#45;&gt;B</title>
<path fill="none" stroke="black" d="M117.67,-609.23C123.79,-620.87 133.28,-636.31 145,-647 149.95,-651.51 156,-655.38 161.94,-658.55"/>
<polygon fill="black" stroke="black" points="171.03,-662.97 160.07,-662.65 166.54,-660.78 162.04,-658.6 162.04,-658.6 162.04,-658.6 166.54,-660.78 164,-654.55 171.03,-662.97 171.03,-662.97"/>
<text text-anchor="middle" x="148.5" y="-654.8" font-family="Times New Roman,serif" font-size="14.00">4</text>
</g>
<!-- A&#45;&gt;B -->
<g id="edge7" class="edge">
<title>A&#45;&gt;B</title>
<path fill="none" stroke="black" d="M123.74,-603.48C132.2,-610.16 143.09,-619.19 152,-628 158.08,-634.01 164.29,-640.96 169.75,-647.41"/>
<polygon fill="black" stroke="black" points="176.2,-655.2 166.35,-650.37 173.01,-651.35 169.82,-647.49 169.82,-647.49 169.82,-647.49 173.01,-651.35 173.29,-644.62 176.2,-655.2 176.2,-655.2"/>
<text text-anchor="middle" x="148.5" y="-631.8" font-family="Times New Roman,serif" font-size="14.00">5</text>
</g>
<!-- A&#45;&gt;B -->
<g id="edge8" class="edge">
<title>A&#45;&gt;B</title>
<path fill="none" stroke="black" d="M127.35,-593.38C135.53,-594.34 145,-596.67 152,-602 165.03,-611.91 173.67,-628.07 179.11,-642.03"/>
<polygon fill="black" stroke="black" points="182.52,-651.69 174.94,-643.76 180.85,-646.98 179.19,-642.26 179.19,-642.26 179.19,-642.26 180.85,-646.98 183.43,-640.77 182.52,-651.69 182.52,-651.69"/>
<text text-anchor="middle" x="148.5" y="-605.8" font-family="Times New Roman,serif" font-size="14.00">6</text>
</g>
<!-- A&#45;&gt;B -->
<g id="edge9" class="edge">
<title>A&#45;&gt;B</title>
<path fill="none" stroke="black" d="M123.7,-582.02C132.34,-576.51 143.45,-572.13 152,-578 172.41,-592.02 180.92,-619.73 184.47,-640.91"/>
<polygon fill="black" stroke="black" points="185.88,-650.98 180.04,-641.7 185.19,-646.03 184.5,-641.08 184.5,-641.08 184.5,-641.08 185.19,-646.03 188.95,-640.46 185.88,-650.98 185.88,-650.98"/>
<text text-anchor="middle" x="148.5" y="-581.8" font-family="Times New Roman,serif" font-size="14.00">7</text>
</g>
<!-- A&#45;&gt;B -->
<g id="edge10" class="edge">
<title>A&#45;&gt;B</title>
<path fill="none" stroke="black" d="M118.01,-577.4C126.21,-563.53 139.48,-546.77 152,-556 178.15,-575.28 185.35,-613.88 187.03,-640.57"/>
<polygon fill="black" stroke="black" points="187.45,-650.84 182.54,-641.03 187.24,-645.84 187.04,-640.84 187.04,-640.84 187.04,-640.84 187.24,-645.84 191.54,-640.66 187.45,-650.84 187.45,-650.84"/>
<text text-anchor="middle" x="148.5" y="-559.8" font-family="Times New Roman,serif" font-size="14.00">8</text>
</g>
<!-- A&#45;&gt;B -->
<g id="edge11" class="edge">
<title>A&#45;&gt;B</title>
<path fill="none" stroke="black" d="M114.5,-575.72C121.06,-553.8 134.4,-520.38 152,-534 168.75,-546.96 178.95,-605.23 183.73,-640.84"/>
<polygon fill="black" stroke="black" points="185.04,-651.09 179.31,-641.75 184.41,-646.13 183.77,-641.18 183.77,-641.18 183.77,-641.18 184.41,-646.13 188.24,-640.6 185.04,-651.09 185.04,-651.09"/>
<text text-anchor="middle" x="148.5" y="-537.8" font-family="Times New Roman,serif" font-size="14.00">9</text>
</g>
<!-- A&#45;&gt;L -->
<g id="edge2" class="edge">
<title>A&#45;&gt;L</title>
<path fill="none" stroke="black" d="M110.56,-574.85C113.75,-479.2 131.49,-38 187,-38 187,-38 187,-38 746,-38 792.11,-38 779.56,-86.6 792,-131 811.72,-201.37 822.58,-424.44 825.89,-503.71"/>
<polygon fill="black" stroke="black" points="826.31,-513.91 821.41,-504.1 826.11,-508.91 825.9,-503.92 825.9,-503.92 825.9,-503.92 826.11,-508.91 830.4,-503.73 826.31,-513.91 826.31,-513.91"/>
<text text-anchor="middle" x="464.5" y="-41.8" font-family="Times New Roman,serif" font-size="14.00">0</text>
</g>
<!-- A&#45;&gt;L -->
<g id="edge12" class="edge">
<title>A&#45;&gt;L</title>
<path fill="none" stroke="black" d="M110.4,-574.93C112.82,-475.55 127.5,0 187,0 187,0 187,0 746,0 774.12,0 787.43,-68.07 792,-88 827.29,-241.8 828.56,-432.56 827.62,-503.6"/>
<polygon fill="black" stroke="black" points="827.46,-513.95 823.11,-503.88 827.53,-508.95 827.61,-503.95 827.61,-503.95 827.61,-503.95 827.53,-508.95 832.11,-504.02 827.46,-513.95 827.46,-513.95"/>
<text text-anchor="middle" x="464.5" y="-3.8" font-family="Times New Roman,serif" font-size="14.00">&#45;</text>
</g>
<!-- D -->
<g id="node9" class="node">
<title>D</title>
<ellipse fill="none" stroke="black" cx="346" cy="-707" rx="18" ry="18"/>
<text text-anchor="middle" x="346" y="-703.3" font-family="Times New Roman,serif" font-size="14.00">D</text>
</g>
<!-- D&#45;&gt;E -->
<g id="edge35" class="edge">
<title>D&#45;&gt;E</title>
<path fill="none" stroke="black" d="M347.97,-724.9C350.52,-764.24 358.88,-856.2 382,-875 416.74,-903.25 423.08,-819.13 424.02,-773.02"/>
<polygon fill="black" stroke="black" points="424.15,-763 428.52,-773.06 424.08,-768 424.02,-773 424.02,-773 424.02,-773 424.08,-768 419.52,-772.94 424.15,-763 424.15,-763"/>
<text text-anchor="middle" x="385.5" y="-881.8" font-family="Times New Roman,serif" font-size="14.00">0</text>
</g>
<!-- D&#45;&gt;E -->
<g id="edge36" class="edge">
<title>D&#45;&gt;E</title>
<path fill="none" stroke="black" d="M349.13,-724.75C353.41,-757.05 364.19,-823.35 382,-837 406.14,-855.5 416.84,-806.83 421.24,-773.42"/>
<polygon fill="black" stroke="black" points="422.45,-763.22 425.74,-773.68 421.86,-768.18 421.27,-773.15 421.27,-773.15 421.27,-773.15 421.86,-768.18 416.8,-772.62 422.45,-763.22 422.45,-763.22"/>
<text text-anchor="middle" x="385.5" y="-843.8" font-family="Times New Roman,serif" font-size="14.00">1</text>
</g>
<!-- D&#45;&gt;E -->
<g id="edge37" class="edge">
<title>D&#45;&gt;E</title>
<path fill="none" stroke="black" d="M348.06,-725.21C350.41,-746.94 357.94,-782.41 382,-799 396.34,-808.89 408.03,-789.73 415.41,-771.55"/>
<polygon fill="black" stroke="black" points="418.95,-762.03 419.68,-772.97 417.21,-766.71 415.46,-771.4 415.46,-771.4 415.46,-771.4 417.21,-766.71 411.25,-769.83 418.95,-762.03 418.95,-762.03"/>
<text text-anchor="middle" x="385.5" y="-804.8" font-family="Times New Roman,serif" font-size="14.00">2</text>
</g>
<!-- D&#45;&gt;E -->
<g id="edge38" class="edge">
<title>D&#45;&gt;E</title>
<path fill="none" stroke="black" d="M352.78,-723.77C358.17,-736.52 367.57,-753.16 382,-761 388.08,-764.3 394.99,-763.4 401.42,-760.8"/>
<polygon fill="black" stroke="black" points="410.35,-756.09 403.61,-764.74 405.93,-758.42 401.51,-760.76 401.51,-760.76 401.51,-760.76 405.93,-758.42 399.41,-756.78 410.35,-756.09 410.35,-756.09"/>
<text text-anchor="middle" x="385.5" y="-766.8" font-family="Times New Roman,serif" font-size="14.00">3</text>
</g>
<!-- D&#45;&gt;E -->
<g id="edge39" class="edge">
<title>D&#45;&gt;E</title>
<path fill="none" stroke="black" d="M362.58,-714.69C373.12,-719.89 387.27,-726.87 399.33,-732.82"/>
<polygon fill="black" stroke="black" points="408.44,-737.32 397.48,-736.93 403.96,-735.11 399.47,-732.9 399.47,-732.9 399.47,-732.9 403.96,-735.11 401.47,-728.86 408.44,-737.32 408.44,-737.32"/>
<text text-anchor="middle" x="385.5" y="-730.8" font-family="Times New Roman,serif" font-size="14.00">4</text>
</g>
<!-- D&#45;&gt;E -->
<g id="edge40" class="edge">
<title>D&#45;&gt;E</title>
<path fill="none" stroke="black" d="M363.62,-702.78C371.62,-701.59 381.16,-701.44 389,-705 396.8,-708.54 403.54,-714.77 408.97,-721.27"/>
<polygon fill="black" stroke="black" points="415.13,-729.48 405.53,-724.18 412.13,-725.48 409.13,-721.48 409.13,-721.48 409.13,-721.48 412.13,-725.48 412.73,-718.78 415.13,-729.48 415.13,-729.48"/>
<text text-anchor="middle" x="385.5" y="-708.8" font-family="Times New Roman,serif" font-size="14.00">5</text>
</g>
<!-- D&#45;&gt;E -->
<g id="edge41" class="edge">
<title>D&#45;&gt;E</title>
<path fill="none" stroke="black" d="M358.44,-693.38C366.91,-685.03 378.7,-676.99 389,-683 402.01,-690.6 410.57,-705.02 415.96,-718.05"/>
<polygon fill="black" stroke="black" points="419.49,-727.6 411.81,-719.78 417.76,-722.91 416.03,-718.22 416.03,-718.22 416.03,-718.22 417.76,-722.91 420.25,-716.66 419.49,-727.6 419.49,-727.6"/>
<text text-anchor="middle" x="385.5" y="-686.8" font-family="Times New Roman,serif" font-size="14.00">6</text>
</g>
<!-- D&#45;&gt;E -->
<g id="edge42" class="edge">
<title>D&#45;&gt;E</title>
<path fill="none" stroke="black" d="M353.38,-690.25C360.84,-673.34 374.06,-651.04 389,-661 407.52,-673.35 416.26,-697.55 420.37,-716.82"/>
<polygon fill="black" stroke="black" points="422.21,-726.91 415.99,-717.88 421.31,-721.99 420.42,-717.07 420.42,-717.07 420.42,-717.07 421.31,-721.99 424.84,-716.26 422.21,-726.91 422.21,-726.91"/>
<text text-anchor="middle" x="385.5" y="-664.8" font-family="Times New Roman,serif" font-size="14.00">7</text>
</g>
<!-- D&#45;&gt;E -->
<g id="edge43" class="edge">
<title>D&#45;&gt;E</title>
<path fill="none" stroke="black" d="M350.37,-689.53C355.94,-664.82 368.53,-624.2 389,-639 413.32,-656.58 421.03,-691.69 423.32,-716.68"/>
<polygon fill="black" stroke="black" points="424,-726.69 418.83,-717.02 423.66,-721.7 423.32,-716.71 423.32,-716.71 423.32,-716.71 423.66,-721.7 427.81,-716.41 424,-726.69 424,-726.69"/>
<text text-anchor="middle" x="385.5" y="-642.8" font-family="Times New Roman,serif" font-size="14.00">8</text>
</g>
<!-- D&#45;&gt;E -->
<g id="edge44" class="edge">
<title>D&#45;&gt;E</title>
<path fill="none" stroke="black" d="M348.63,-689.17C352.22,-657.58 362.68,-596.91 389,-617 404.82,-629.08 415.23,-683.17 420.33,-717.05"/>
<polygon fill="black" stroke="black" points="421.79,-727.27 415.92,-718.01 421.08,-722.32 420.37,-717.37 420.37,-717.37 420.37,-717.37 421.08,-722.32 424.83,-716.73 421.79,-727.27 421.79,-727.27"/>
<text text-anchor="middle" x="385.5" y="-620.8" font-family="Times New Roman,serif" font-size="14.00">9</text>
</g>
<!-- D&#45;&gt;L -->
<g id="edge45" class="edge">
<title>D&#45;&gt;L</title>
<path fill="none" stroke="black" d="M347.28,-689.03C349.12,-586.88 361.33,-84 424,-84 424,-84 424,-84 544.5,-84 644.23,-84 684.51,-56.97 767,-113 785.93,-125.86 785.23,-136.14 792,-158 811.99,-222.57 822.56,-427.82 825.85,-503.56"/>
<polygon fill="black" stroke="black" points="826.29,-513.76 821.37,-503.96 826.07,-508.77 825.86,-503.77 825.86,-503.77 825.86,-503.77 826.07,-508.77 830.36,-503.58 826.29,-513.76 826.29,-513.76"/>
<text text-anchor="middle" x="583" y="-87.8" font-family="Times New Roman,serif" font-size="14.00">&#45;</text>
</g>
<!-- C&#45;&gt;L -->
<g id="edge34" class="edge">
<title>C&#45;&gt;L</title>
<path fill="none" stroke="black" d="M268.97,-725.26C272.81,-788.16 289.52,-992 345,-992 345,-992 345,-992 746,-992 774.29,-992 779.8,-973.53 792,-948 824.9,-879.16 827.36,-642.16 827.19,-560.17"/>
<polygon fill="black" stroke="black" points="827.16,-550.1 831.69,-560.08 827.18,-555.1 827.19,-560.1 827.19,-560.1 827.19,-560.1 827.18,-555.1 822.69,-560.11 827.16,-550.1 827.16,-550.1"/>
<text text-anchor="middle" x="543.5" y="-995.8" font-family="Times New Roman,serif" font-size="14.00">&#45;</text>
</g>
<!-- C&#45;&gt;D -->
<g id="edge24" class="edge">
<title>C&#45;&gt;D</title>
<path fill="none" stroke="black" d="M269.5,-725.05C272.92,-761.08 282.59,-839.83 303,-856 322.98,-871.83 336.41,-782.42 342.02,-735.02"/>
<polygon fill="black" stroke="black" points="343.16,-725.05 346.5,-735.5 342.6,-730.02 342.03,-734.99 342.03,-734.99 342.03,-734.99 342.6,-730.02 337.56,-734.48 343.16,-725.05 343.16,-725.05"/>
<text text-anchor="middle" x="306.5" y="-860.8" font-family="Times New Roman,serif" font-size="14.00">0</text>
</g>
<!-- C&#45;&gt;D -->
<g id="edge25" class="edge">
<title>C&#45;&gt;D</title>
<path fill="none" stroke="black" d="M267.68,-725.28C268.34,-750.87 273.83,-796.61 303,-818 333.14,-840.1 341.65,-775.17 344.06,-735.43"/>
<polygon fill="black" stroke="black" points="344.58,-725.23 348.56,-735.44 344.32,-730.22 344.07,-735.21 344.07,-735.21 344.07,-735.21 344.32,-730.22 339.57,-734.98 344.58,-725.23 344.58,-725.23"/>
<text text-anchor="middle" x="306.5" y="-823.8" font-family="Times New Roman,serif" font-size="14.00">1</text>
</g>
<!-- C&#45;&gt;D -->
<g id="edge26" class="edge">
<title>C&#45;&gt;D</title>
<path fill="none" stroke="black" d="M270.97,-724.72C274.94,-742.18 283.85,-767.94 303,-780 322.9,-792.53 334.37,-760.5 340.15,-734.96"/>
<polygon fill="black" stroke="black" points="342.23,-724.9 344.62,-735.6 341.22,-729.8 340.21,-734.69 340.21,-734.69 340.21,-734.69 341.22,-729.8 335.8,-733.79 342.23,-724.9 342.23,-724.9"/>
<text text-anchor="middle" x="306.5" y="-785.8" font-family="Times New Roman,serif" font-size="14.00">2</text>
</g>
<!-- C&#45;&gt;D -->
<g id="edge27" class="edge">
<title>C&#45;&gt;D</title>
<path fill="none" stroke="black" d="M277.88,-721.34C284.09,-729.04 292.84,-737.79 303,-742 313.21,-746.23 322.81,-739.38 330.25,-730.65"/>
<polygon fill="black" stroke="black" points="336.44,-722.37 334.06,-733.07 333.45,-726.38 330.45,-730.38 330.45,-730.38 330.45,-730.38 333.45,-726.38 326.85,-727.69 336.44,-722.37 336.44,-722.37"/>
<text text-anchor="middle" x="306.5" y="-746.8" font-family="Times New Roman,serif" font-size="14.00">3</text>
</g>
<!-- C&#45;&gt;D -->
<g id="edge28" class="edge">
<title>C&#45;&gt;D</title>
<path fill="none" stroke="black" d="M285.09,-707C294.66,-707 306.82,-707 317.68,-707"/>
<polygon fill="black" stroke="black" points="327.96,-707 317.96,-711.5 322.96,-707 317.96,-707 317.96,-707 317.96,-707 322.96,-707 317.96,-702.5 327.96,-707 327.96,-707"/>
<text text-anchor="middle" x="306.5" y="-710.8" font-family="Times New Roman,serif" font-size="14.00">4</text>
</g>
<!-- C&#45;&gt;D -->
<g id="edge29" class="edge">
<title>C&#45;&gt;D</title>
<path fill="none" stroke="black" d="M282.31,-697.13C288.4,-693.51 295.76,-689.84 303,-688 309.62,-686.32 316.49,-687.87 322.71,-690.68"/>
<polygon fill="black" stroke="black" points="331.82,-695.86 320.9,-694.83 327.47,-693.39 323.13,-690.92 323.13,-690.92 323.13,-690.92 327.47,-693.39 325.35,-687.01 331.82,-695.86 331.82,-695.86"/>
<text text-anchor="middle" x="306.5" y="-691.8" font-family="Times New Roman,serif" font-size="14.00">5</text>
</g>
<!-- C&#45;&gt;D -->
<g id="edge30" class="edge">
<title>C&#45;&gt;D</title>
<path fill="none" stroke="black" d="M276.96,-691.86C283.07,-683.11 292.03,-672.89 303,-668 314.26,-662.98 324.45,-671.95 331.98,-682.55"/>
<polygon fill="black" stroke="black" points="337.42,-691.16 328.27,-685.1 334.75,-686.93 332.08,-682.7 332.08,-682.7 332.08,-682.7 334.75,-686.93 335.88,-680.3 337.42,-691.16 337.42,-691.16"/>
<text text-anchor="middle" x="306.5" y="-671.8" font-family="Times New Roman,serif" font-size="14.00">6</text>
</g>
<!-- C&#45;&gt;D -->
<g id="edge31" class="edge">
<title>C&#45;&gt;D</title>
<path fill="none" stroke="black" d="M272.77,-689.86C277.75,-675.57 287.11,-656.13 303,-647 319.51,-637.52 331.07,-659.65 337.83,-679.65"/>
<polygon fill="black" stroke="black" points="340.84,-689.45 333.6,-681.22 339.37,-684.67 337.9,-679.89 337.9,-679.89 337.9,-679.89 339.37,-684.67 342.2,-678.57 340.84,-689.45 340.84,-689.45"/>
<text text-anchor="middle" x="306.5" y="-650.8" font-family="Times New Roman,serif" font-size="14.00">7</text>
</g>
<!-- C&#45;&gt;D -->
<g id="edge32" class="edge">
<title>C&#45;&gt;D</title>
<path fill="none" stroke="black" d="M269.99,-688.97C273.21,-669.44 281.56,-639.16 303,-625 325.35,-610.24 336.43,-649.87 341.42,-679.05"/>
<polygon fill="black" stroke="black" points="343,-689.21 337.02,-680.02 342.23,-684.27 341.46,-679.33 341.46,-679.33 341.46,-679.33 342.23,-684.27 345.91,-678.64 343,-689.21 343,-689.21"/>
<text text-anchor="middle" x="306.5" y="-628.8" font-family="Times New Roman,serif" font-size="14.00">8</text>
</g>
<!-- C&#45;&gt;D -->
<g id="edge33" class="edge">
<title>C&#45;&gt;D</title>
<path fill="none" stroke="black" d="M268.12,-689.02C269.37,-664.86 275.62,-622.68 303,-603 331.21,-582.73 340.5,-641.21 343.54,-678.53"/>
<polygon fill="black" stroke="black" points="344.27,-688.87 339.07,-679.21 343.92,-683.88 343.56,-678.89 343.56,-678.89 343.56,-678.89 343.92,-683.88 348.05,-678.58 344.27,-688.87 344.27,-688.87"/>
<text text-anchor="middle" x="306.5" y="-606.8" font-family="Times New Roman,serif" font-size="14.00">9</text>
</g>
<!-- I&#45;&gt;L -->
<g id="edge90" class="edge">
<title>I&#45;&gt;L</title>
<path fill="none" stroke="black" d="M747.78,-401.93C751.64,-443.22 762.32,-529.98 785,-548 790.8,-552.6 798.07,-551.6 804.92,-548.51"/>
<polygon fill="black" stroke="black" points="813.83,-543.33 807.44,-552.25 809.51,-545.84 805.18,-548.36 805.18,-548.36 805.18,-548.36 809.51,-545.84 802.92,-544.46 813.83,-543.33 813.83,-543.33"/>
<text text-anchor="middle" x="788.5" y="-553.8" font-family="Times New Roman,serif" font-size="14.00">0</text>
</g>
<!-- I&#45;&gt;L -->
<g id="edge91" class="edge">
<title>I&#45;&gt;L</title>
<path fill="none" stroke="black" d="M747.46,-402.22C750.37,-430.24 759.06,-478.56 785,-510 789.33,-515.25 795.25,-519.4 801.27,-522.62"/>
<polygon fill="black" stroke="black" points="810.61,-526.93 799.65,-526.83 806.07,-524.84 801.53,-522.74 801.53,-522.74 801.53,-522.74 806.07,-524.84 803.42,-518.66 810.61,-526.93 810.61,-526.93"/>
<text text-anchor="middle" x="788.5" y="-519.8" font-family="Times New Roman,serif" font-size="14.00">1</text>
</g>
<!-- I&#45;&gt;L -->
<g id="edge92" class="edge">
<title>I&#45;&gt;L</title>
<path fill="none" stroke="black" d="M753.34,-400.68C760.42,-419.71 771.97,-448.48 785,-472 792.29,-485.16 801.82,-498.98 809.96,-510.03"/>
<polygon fill="black" stroke="black" points="816.11,-518.24 806.51,-512.94 813.11,-514.24 810.11,-510.24 810.11,-510.24 810.11,-510.24 813.11,-514.24 813.71,-507.54 816.11,-518.24 816.11,-518.24"/>
<text text-anchor="middle" x="788.5" y="-485.8" font-family="Times New Roman,serif" font-size="14.00">2</text>
</g>
<!-- I&#45;&gt;L -->
<g id="edge93" class="edge">
<title>I&#45;&gt;L</title>
<path fill="none" stroke="black" d="M758.28,-397.86C768.01,-412.38 781.64,-433.57 792,-453 801.14,-470.16 810,-490.19 816.52,-505.79"/>
<polygon fill="black" stroke="black" points="820.44,-515.33 812.47,-507.79 818.54,-510.7 816.64,-506.08 816.64,-506.08 816.64,-506.08 818.54,-510.7 820.8,-504.37 820.44,-515.33 820.44,-515.33"/>
<text text-anchor="middle" x="788.5" y="-456.8" font-family="Times New Roman,serif" font-size="14.00">3</text>
</g>
<!-- I&#45;&gt;L -->
<g id="edge94" class="edge">
<title>I&#45;&gt;L</title>
<path fill="none" stroke="black" d="M763.88,-392.22C773.42,-399.57 784.68,-409.68 792,-421 808.56,-446.6 817.76,-480.59 822.52,-504.18"/>
<polygon fill="black" stroke="black" points="824.4,-514.22 818.14,-505.22 823.48,-509.3 822.56,-504.39 822.56,-504.39 822.56,-504.39 823.48,-509.3 826.98,-503.56 824.4,-514.22 824.4,-514.22"/>
<text text-anchor="middle" x="788.5" y="-424.8" font-family="Times New Roman,serif" font-size="14.00">4</text>
</g>
<!-- I&#45;&gt;L -->
<g id="edge95" class="edge">
<title>I&#45;&gt;L</title>
<path fill="none" stroke="black" d="M767.16,-381.88C775.93,-383.71 785.55,-387.24 792,-394 820.23,-423.6 826.59,-472.6 827.56,-503.54"/>
<polygon fill="black" stroke="black" points="827.7,-513.68 823.06,-503.74 827.63,-508.68 827.56,-503.68 827.56,-503.68 827.56,-503.68 827.63,-508.68 832.06,-503.62 827.7,-513.68 827.7,-513.68"/>
<text text-anchor="middle" x="788.5" y="-397.8" font-family="Times New Roman,serif" font-size="14.00">5</text>
</g>
<!-- I&#45;&gt;L -->
<g id="edge96" class="edge">
<title>I&#45;&gt;L</title>
<path fill="none" stroke="black" d="M764.72,-369.89C773.81,-366.47 784.4,-364.87 792,-371 812.33,-387.39 821.47,-462.31 825.03,-503.93"/>
<polygon fill="black" stroke="black" points="825.84,-513.98 820.55,-504.37 825.44,-508.99 825.04,-504.01 825.04,-504.01 825.04,-504.01 825.44,-508.99 829.53,-503.65 825.84,-513.98 825.84,-513.98"/>
<text text-anchor="middle" x="788.5" y="-374.8" font-family="Times New Roman,serif" font-size="14.00">6</text>
</g>
<!-- I&#45;&gt;L -->
<g id="edge97" class="edge">
<title>I&#45;&gt;L</title>
<path fill="none" stroke="black" d="M758.57,-362.32C768.09,-351.08 781.31,-340.16 792,-349 815.36,-368.31 823.27,-457.42 825.84,-503.78"/>
<polygon fill="black" stroke="black" points="826.35,-513.79 821.35,-504.03 826.09,-508.79 825.84,-503.8 825.84,-503.8 825.84,-503.8 826.09,-508.79 830.33,-503.57 826.35,-513.79 826.35,-513.79"/>
<text text-anchor="middle" x="788.5" y="-352.8" font-family="Times New Roman,serif" font-size="14.00">7</text>
</g>
<!-- I&#45;&gt;L -->
<g id="edge98" class="edge">
<title>I&#45;&gt;L</title>
<path fill="none" stroke="black" d="M753.7,-359.74C762.26,-340.18 776.89,-315.26 792,-328 818.24,-350.12 824.81,-452.78 826.45,-503.49"/>
<polygon fill="black" stroke="black" points="826.74,-513.76 821.96,-503.89 826.6,-508.77 826.46,-503.77 826.46,-503.77 826.46,-503.77 826.6,-508.77 830.96,-503.64 826.74,-513.76 826.74,-513.76"/>
<text text-anchor="middle" x="788.5" y="-331.8" font-family="Times New Roman,serif" font-size="14.00">8</text>
</g>
<!-- I&#45;&gt;L -->
<g id="edge99" class="edge">
<title>I&#45;&gt;L</title>
<path fill="none" stroke="black" d="M750.51,-358.7C757.3,-331.1 771.56,-288.48 792,-306 821.39,-331.19 826.32,-449.13 826.99,-503.91"/>
<polygon fill="black" stroke="black" points="827.08,-513.98 822.49,-504.02 827.03,-508.98 826.99,-503.98 826.99,-503.98 826.99,-503.98 827.03,-508.98 831.49,-503.94 827.08,-513.98 827.08,-513.98"/>
<text text-anchor="middle" x="788.5" y="-309.8" font-family="Times New Roman,serif" font-size="14.00">9</text>
</g>
<!-- I&#45;&gt;L -->
<g id="edge100" class="edge">
<title>I&#45;&gt;L</title>
<path fill="none" stroke="black" d="M748.5,-358.18C753.32,-323.34 765.84,-261.27 792,-284 824.45,-312.19 827.65,-444.74 827.43,-503.65"/>
<polygon fill="black" stroke="black" points="827.35,-513.76 822.93,-503.72 827.39,-508.76 827.43,-503.76 827.43,-503.76 827.43,-503.76 827.39,-508.76 831.93,-503.79 827.35,-513.76 827.35,-513.76"/>
<text text-anchor="middle" x="788.5" y="-287.8" font-family="Times New Roman,serif" font-size="14.00">&#45;</text>
</g>
</g>
</svg>
